solid 
   facet normal 0.000000e+000 -0.000000e+000 1.000000e+000
      outer loop
         vertex 2.000000e+000 3.000000e+000 3.300000e+001
         vertex 4.800000e+001 3.000000e+000 3.300000e+001
         vertex 5.029822e+001 7.546436e+000 3.300000e+001
      endloop
   endfacet
   facet normal 0.000000e+000 0.000000e+000 1.000000e+000
      outer loop
         vertex 4.800000e+001 -3.900000e+001 3.300000e+001
         vertex 5.900000e+001 -3.900000e+001 3.300000e+001
         vertex 4.800000e+001 3.000000e+000 3.300000e+001
      endloop
   endfacet
   facet normal 0.000000e+000 0.000000e+000 1.000000e+000
      outer loop
         vertex -9.000000e+000 1.400000e+001 3.300000e+001
         vertex -9.000000e+000 -3.900000e+001 3.300000e+001
         vertex -3.701779e+000 6.349365e+000 3.300000e+001
      endloop
   endfacet
   facet normal 0.000000e+000 0.000000e+000 1.000000e+000
      outer loop
         vertex 2.000000e+000 -3.900000e+001 3.300000e+001
         vertex 2.000000e+000 3.000000e+000 3.300000e+001
         vertex -9.000000e+000 -3.900000e+001 3.300000e+001
      endloop
   endfacet
   facet normal -0.000000e+000 0.000000e+000 1.000000e+000
      outer loop
         vertex 5.328326e+001 5.823022e+000 3.300000e+001
         vertex 5.224657e+001 5.224487e+000 3.300000e+001
         vertex 5.900000e+001 -3.900000e+001 3.300000e+001
      endloop
   endfacet
   facet normal 0.000000e+000 0.000000e+000 1.000000e+000
      outer loop
         vertex 5.106768e+001 5.432356e+000 3.300000e+001
         vertex 5.029822e+001 6.349365e+000 3.300000e+001
         vertex 4.800000e+001 3.000000e+000 3.300000e+001
      endloop
   endfacet
   facet normal 0.000000e+000 0.000000e+000 1.000000e+000
      outer loop
         vertex 5.029822e+001 7.546436e+000 3.300000e+001
         vertex 5.106768e+001 8.463445e+000 3.300000e+001
         vertex -7.167388e-001 8.072779e+000 3.300000e+001
      endloop
   endfacet
   facet normal 0.000000e+000 -0.000000e+000 1.000000e+000
      outer loop
         vertex 5.224657e+001 8.671314e+000 3.300000e+001
         vertex 5.328326e+001 8.072779e+000 3.300000e+001
         vertex 5.900000e+001 1.400000e+001 3.300000e+001
      endloop
   endfacet
   facet normal -0.000000e+000 0.000000e+000 1.000000e+000
      outer loop
         vertex -3.073166e-001 6.947901e+000 3.300000e+001
         vertex -7.167388e-001 5.823022e+000 3.300000e+001
         vertex 2.000000e+000 3.000000e+000 3.300000e+001
      endloop
   endfacet
   facet normal 0.000000e+000 0.000000e+000 1.000000e+000
      outer loop
         vertex -1.753432e+000 5.224487e+000 3.300000e+001
         vertex -2.932317e+000 5.432356e+000 3.300000e+001
         vertex 2.000000e+000 3.000000e+000 3.300000e+001
      endloop
   endfacet
   facet normal 0.000000e+000 0.000000e+000 1.000000e+000
      outer loop
         vertex -3.701779e+000 6.349365e+000 3.300000e+001
         vertex -3.701779e+000 7.546436e+000 3.300000e+001
         vertex -9.000000e+000 1.400000e+001 3.300000e+001
      endloop
   endfacet
   facet normal 0.000000e+000 0.000000e+000 1.000000e+000
      outer loop
         vertex -2.932317e+000 8.463445e+000 3.300000e+001
         vertex -1.753432e+000 8.671314e+000 3.300000e+001
         vertex -9.000000e+000 1.400000e+001 3.300000e+001
      endloop
   endfacet
   facet normal 0.000000e+000 0.000000e+000 1.000000e+000
      outer loop
         vertex 2.000000e+000 3.000000e+000 3.300000e+001
         vertex 5.029822e+001 7.546436e+000 3.300000e+001
         vertex -7.167388e-001 8.072779e+000 3.300000e+001
      endloop
   endfacet
   facet normal 0.000000e+000 0.000000e+000 1.000000e+000
      outer loop
         vertex 4.800000e+001 3.000000e+000 3.300000e+001
         vertex 5.900000e+001 -3.900000e+001 3.300000e+001
         vertex 5.224657e+001 5.224487e+000 3.300000e+001
      endloop
   endfacet
   facet normal 0.000000e+000 0.000000e+000 1.000000e+000
      outer loop
         vertex -9.000000e+000 -3.900000e+001 3.300000e+001
         vertex 2.000000e+000 3.000000e+000 3.300000e+001
         vertex -2.932317e+000 5.432356e+000 3.300000e+001
      endloop
   endfacet
   facet normal 0.000000e+000 0.000000e+000 1.000000e+000
      outer loop
         vertex 5.106768e+001 5.432356e+000 3.300000e+001
         vertex 4.800000e+001 3.000000e+000 3.300000e+001
         vertex 5.224657e+001 5.224487e+000 3.300000e+001
      endloop
   endfacet
   facet normal 0.000000e+000 0.000000e+000 1.000000e+000
      outer loop
         vertex 5.224657e+001 8.671314e+000 3.300000e+001
         vertex 5.900000e+001 1.400000e+001 3.300000e+001
         vertex 5.106768e+001 8.463445e+000 3.300000e+001
      endloop
   endfacet
   facet normal 0.000000e+000 0.000000e+000 1.000000e+000
      outer loop
         vertex 2.000000e+000 3.000000e+000 3.300000e+001
         vertex -7.167388e-001 5.823022e+000 3.300000e+001
         vertex -1.753432e+000 5.224487e+000 3.300000e+001
      endloop
   endfacet
   facet normal -0.000000e+000 -0.000000e+000 1.000000e+000
      outer loop
         vertex -9.000000e+000 1.400000e+001 3.300000e+001
         vertex -1.753432e+000 8.671314e+000 3.300000e+001
         vertex -7.167388e-001 8.072779e+000 3.300000e+001
      endloop
   endfacet
   facet normal 0.000000e+000 0.000000e+000 1.000000e+000
      outer loop
         vertex 5.106768e+001 8.463445e+000 3.300000e+001
         vertex 5.900000e+001 1.400000e+001 3.300000e+001
         vertex -9.000000e+000 1.400000e+001 3.300000e+001
      endloop
   endfacet
   facet normal 0.000000e+000 0.000000e+000 1.000000e+000
      outer loop
         vertex 5.900000e+001 -3.900000e+001 3.300000e+001
         vertex 5.900000e+001 1.400000e+001 3.300000e+001
         vertex 5.328326e+001 5.823022e+000 3.300000e+001
      endloop
   endfacet
   facet normal 0.000000e+000 0.000000e+000 1.000000e+000
      outer loop
         vertex 5.369268e+001 6.947901e+000 3.300000e+001
         vertex 5.328326e+001 5.823022e+000 3.300000e+001
         vertex 5.900000e+001 1.400000e+001 3.300000e+001
      endloop
   endfacet
   facet normal -0.000000e+000 -0.000000e+000 1.000000e+000
      outer loop
         vertex -7.167388e-001 8.072779e+000 3.300000e+001
         vertex -3.073166e-001 6.947901e+000 3.300000e+001
         vertex 2.000000e+000 3.000000e+000 3.300000e+001
      endloop
   endfacet
   facet normal 0.000000e+000 0.000000e+000 1.000000e+000
      outer loop
         vertex -3.701779e+000 7.546436e+000 3.300000e+001
         vertex -2.932317e+000 8.463445e+000 3.300000e+001
         vertex -9.000000e+000 1.400000e+001 3.300000e+001
      endloop
   endfacet
   facet normal 0.000000e+000 0.000000e+000 1.000000e+000
      outer loop
         vertex -3.701779e+000 6.349365e+000 3.300000e+001
         vertex -9.000000e+000 -3.900000e+001 3.300000e+001
         vertex -2.932317e+000 5.432356e+000 3.300000e+001
      endloop
   endfacet
   facet normal -0.000000e+000 0.000000e+000 1.000000e+000
      outer loop
         vertex 5.900000e+001 1.400000e+001 3.300000e+001
         vertex 5.328326e+001 8.072779e+000 3.300000e+001
         vertex 5.369268e+001 6.947901e+000 3.300000e+001
      endloop
   endfacet
   facet normal 0.000000e+000 0.000000e+000 1.000000e+000
      outer loop
         vertex 5.029822e+001 6.349365e+000 3.300000e+001
         vertex 5.029822e+001 7.546436e+000 3.300000e+001
         vertex 4.800000e+001 3.000000e+000 3.300000e+001
      endloop
   endfacet
   facet normal 0.000000e+000 -0.000000e+000 1.000000e+000
      outer loop
         vertex -9.000000e+000 1.400000e+001 3.300000e+001
         vertex -7.167388e-001 8.072779e+000 3.300000e+001
         vertex 5.106768e+001 8.463445e+000 3.300000e+001
      endloop
   endfacet
   facet normal 1.000000e+000 -0.000000e+000 0.000000e+000
      outer loop
         vertex 5.900000e+001 1.400000e+001 3.300000e+001
         vertex 5.900000e+001 -3.900000e+001 3.300000e+001
         vertex 5.900000e+001 -3.900000e+001 -1.350000e+001
      endloop
   endfacet
   facet normal 1.000000e+000 0.000000e+000 0.000000e+000
      outer loop
         vertex 5.900000e+001 -4.200000e+001 -1.350000e+001
         vertex 5.900000e+001 -4.200000e+001 -1.734589e+001
         vertex 5.900000e+001 -3.900000e+001 -1.350000e+001
      endloop
   endfacet
   facet normal 1.000000e+000 -0.000000e+000 0.000000e+000
      outer loop
         vertex 5.900000e+001 1.400000e+001 3.300000e+001
         vertex 5.900000e+001 -3.900000e+001 -1.350000e+001
         vertex 5.900000e+001 1.400000e+001 -1.734589e+001
      endloop
   endfacet
   facet normal 1.000000e+000 0.000000e+000 0.000000e+000
      outer loop
         vertex 5.900000e+001 -4.200000e+001 -1.734589e+001
         vertex 5.900000e+001 1.400000e+001 -1.734589e+001
         vertex 5.900000e+001 -3.900000e+001 -1.350000e+001
      endloop
   endfacet
   facet normal -1.000000e+000 -0.000000e+000 0.000000e+000
      outer loop
         vertex -9.000000e+000 -4.200000e+001 -1.350000e+001
         vertex -9.000000e+000 -3.900000e+001 -1.350000e+001
         vertex -9.000000e+000 -4.200000e+001 -1.600000e+001
      endloop
   endfacet
   facet normal -1.000000e+000 -0.000000e+000 0.000000e+000
      outer loop
         vertex -9.000000e+000 -3.900000e+001 3.300000e+001
         vertex -9.000000e+000 1.400000e+001 3.300000e+001
         vertex -9.000000e+000 -3.900000e+001 -1.350000e+001
      endloop
   endfacet
   facet normal -1.000000e+000 0.000000e+000 -0.000000e+000
      outer loop
         vertex -9.000000e+000 -4.200000e+001 -1.600000e+001
         vertex -9.000000e+000 -3.900000e+001 -1.350000e+001
         vertex -9.000000e+000 1.400000e+001 -1.600000e+001
      endloop
   endfacet
   facet normal -1.000000e+000 0.000000e+000 0.000000e+000
      outer loop
         vertex -9.000000e+000 1.400000e+001 3.300000e+001
         vertex -9.000000e+000 1.400000e+001 -1.600000e+001
         vertex -9.000000e+000 -3.900000e+001 -1.350000e+001
      endloop
   endfacet
   facet normal 0.000000e+000 0.000000e+000 -1.000000e+000
      outer loop
         vertex 9.000000e+000 -4.200000e+001 -1.600000e+001
         vertex -9.000000e+000 -4.200000e+001 -1.600000e+001
         vertex -9.000000e+000 1.400000e+001 -1.600000e+001
      endloop
   endfacet
   facet normal 0.000000e+000 0.000000e+000 -1.000000e+000
      outer loop
         vertex 9.000000e+000 1.400000e+001 -1.600000e+001
         vertex 9.000000e+000 -4.200000e+001 -1.600000e+001
         vertex -9.000000e+000 1.400000e+001 -1.600000e+001
      endloop
   endfacet
   facet normal 0.000000e+000 0.000000e+000 -1.000000e+000
      outer loop
         vertex 5.900000e+001 -4.200000e+001 -1.734589e+001
         vertex 4.100000e+001 -4.200000e+001 -1.734589e+001
         vertex 4.100000e+001 1.400000e+001 -1.734589e+001
      endloop
   endfacet
   facet normal 0.000000e+000 0.000000e+000 -1.000000e+000
      outer loop
         vertex 5.900000e+001 1.400000e+001 -1.734589e+001
         vertex 5.900000e+001 -4.200000e+001 -1.734589e+001
         vertex 4.100000e+001 1.400000e+001 -1.734589e+001
      endloop
   endfacet
   facet normal 1.000000e+000 0.000000e+000 0.000000e+000
      outer loop
         vertex 4.100000e+001 -4.200000e+001 -1.734589e+001
         vertex 4.100000e+001 -4.200000e+001 -3.300000e+001
         vertex 4.100000e+001 1.400000e+001 -3.300000e+001
      endloop
   endfacet
   facet normal 1.000000e+000 -0.000000e+000 0.000000e+000
      outer loop
         vertex 4.100000e+001 1.400000e+001 -1.734589e+001
         vertex 4.100000e+001 -4.200000e+001 -1.734589e+001
         vertex 4.100000e+001 1.400000e+001 -3.300000e+001
      endloop
   endfacet
   facet normal 0.000000e+000 0.000000e+000 -1.000000e+000
      outer loop
         vertex 4.100000e+001 -4.200000e+001 -3.300000e+001
         vertex 9.000000e+000 -4.200000e+001 -3.300000e+001
         vertex 9.000000e+000 1.400000e+001 -3.300000e+001
      endloop
   endfacet
   facet normal 0.000000e+000 0.000000e+000 -1.000000e+000
      outer loop
         vertex 4.100000e+001 1.400000e+001 -3.300000e+001
         vertex 4.100000e+001 -4.200000e+001 -3.300000e+001
         vertex 9.000000e+000 1.400000e+001 -3.300000e+001
      endloop
   endfacet
   facet normal -1.000000e+000 0.000000e+000 0.000000e+000
      outer loop
         vertex 9.000000e+000 -4.200000e+001 -3.300000e+001
         vertex 9.000000e+000 -4.200000e+001 -1.600000e+001
         vertex 9.000000e+000 1.400000e+001 -1.600000e+001
      endloop
   endfacet
   facet normal -1.000000e+000 0.000000e+000 0.000000e+000
      outer loop
         vertex 9.000000e+000 1.400000e+001 -3.300000e+001
         vertex 9.000000e+000 -4.200000e+001 -3.300000e+001
         vertex 9.000000e+000 1.400000e+001 -1.600000e+001
      endloop
   endfacet
   facet normal -1.000000e+000 0.000000e+000 0.000000e+000
      outer loop
         vertex 3.850000e+001 -3.900000e+001 -3.050000e+001
         vertex 3.850000e+001 -3.900000e+001 -1.350000e+001
         vertex 3.850000e+001 1.100000e+001 -1.350000e+001
      endloop
   endfacet
   facet normal -1.000000e+000 0.000000e+000 -0.000000e+000
      outer loop
         vertex 3.850000e+001 -3.900000e+001 -3.050000e+001
         vertex 3.850000e+001 1.100000e+001 -1.350000e+001
         vertex 3.850000e+001 1.100000e+001 -3.050000e+001
      endloop
   endfacet
   facet normal 0.000000e+000 -0.000000e+000 1.000000e+000
      outer loop
         vertex 1.150000e+001 -3.900000e+001 -3.050000e+001
         vertex 3.850000e+001 -3.900000e+001 -3.050000e+001
         vertex 3.850000e+001 1.100000e+001 -3.050000e+001
      endloop
   endfacet
   facet normal 0.000000e+000 0.000000e+000 1.000000e+000
      outer loop
         vertex 1.150000e+001 -3.900000e+001 -3.050000e+001
         vertex 3.850000e+001 1.100000e+001 -3.050000e+001
         vertex 1.150000e+001 1.100000e+001 -3.050000e+001
      endloop
   endfacet
   facet normal 1.000000e+000 0.000000e+000 0.000000e+000
      outer loop
         vertex 1.150000e+001 -3.900000e+001 -1.350000e+001
         vertex 1.150000e+001 -3.900000e+001 -3.050000e+001
         vertex 1.150000e+001 1.100000e+001 -3.050000e+001
      endloop
   endfacet
   facet normal 1.000000e+000 0.000000e+000 -0.000000e+000
      outer loop
         vertex 1.150000e+001 -3.900000e+001 -1.350000e+001
         vertex 1.150000e+001 1.100000e+001 -3.050000e+001
         vertex 1.150000e+001 1.100000e+001 -1.350000e+001
      endloop
   endfacet
   facet normal 0.000000e+000 -0.000000e+000 1.000000e+000
      outer loop
         vertex -6.500000e+000 -3.900000e+001 -1.350000e+001
         vertex 1.150000e+001 -3.900000e+001 -1.350000e+001
         vertex 1.150000e+001 1.100000e+001 -1.350000e+001
      endloop
   endfacet
   facet normal 0.000000e+000 0.000000e+000 1.000000e+000
      outer loop
         vertex 5.650000e+001 -3.900000e+001 -1.350000e+001
         vertex 3.850000e+001 1.100000e+001 -1.350000e+001
         vertex 3.850000e+001 -3.900000e+001 -1.350000e+001
      endloop
   endfacet
   facet normal 0.000000e+000 -0.000000e+000 1.000000e+000
      outer loop
         vertex 3.850000e+001 1.100000e+001 -1.350000e+001
         vertex 5.650000e+001 -3.900000e+001 -1.350000e+001
         vertex 5.650000e+001 1.100000e+001 -1.350000e+001
      endloop
   endfacet
   facet normal 0.000000e+000 0.000000e+000 1.000000e+000
      outer loop
         vertex 1.150000e+001 -3.900000e+001 -1.350000e+001
         vertex -9.000000e+000 -4.200000e+001 -1.350000e+001
         vertex 5.900000e+001 -4.200000e+001 -1.350000e+001
      endloop
   endfacet
   facet normal 0.000000e+000 0.000000e+000 1.000000e+000
      outer loop
         vertex -9.000000e+000 -4.200000e+001 -1.350000e+001
         vertex -6.500000e+000 -3.900000e+001 -1.350000e+001
         vertex -9.000000e+000 -3.900000e+001 -1.350000e+001
      endloop
   endfacet
   facet normal 0.000000e+000 0.000000e+000 1.000000e+000
      outer loop
         vertex -6.500000e+000 1.100000e+001 -1.350000e+001
         vertex -6.500000e+000 -3.900000e+001 -1.350000e+001
         vertex 1.150000e+001 1.100000e+001 -1.350000e+001
      endloop
   endfacet
   facet normal 0.000000e+000 0.000000e+000 1.000000e+000
      outer loop
         vertex -6.500000e+000 -3.900000e+001 -1.350000e+001
         vertex -9.000000e+000 -4.200000e+001 -1.350000e+001
         vertex 1.150000e+001 -3.900000e+001 -1.350000e+001
      endloop
   endfacet
   facet normal 0.000000e+000 0.000000e+000 1.000000e+000
      outer loop
         vertex 5.900000e+001 -4.200000e+001 -1.350000e+001
         vertex 3.850000e+001 -3.900000e+001 -1.350000e+001
         vertex 1.150000e+001 -3.900000e+001 -1.350000e+001
      endloop
   endfacet
   facet normal 0.000000e+000 -0.000000e+000 1.000000e+000
      outer loop
         vertex 5.650000e+001 -3.900000e+001 -1.350000e+001
         vertex 5.900000e+001 -4.200000e+001 -1.350000e+001
         vertex 5.900000e+001 -3.900000e+001 -1.350000e+001
      endloop
   endfacet
   facet normal 0.000000e+000 0.000000e+000 1.000000e+000
      outer loop
         vertex 3.850000e+001 -3.900000e+001 -1.350000e+001
         vertex 5.900000e+001 -4.200000e+001 -1.350000e+001
         vertex 5.650000e+001 -3.900000e+001 -1.350000e+001
      endloop
   endfacet
   facet normal -1.000000e+000 0.000000e+000 0.000000e+000
      outer loop
         vertex 5.650000e+001 -3.900000e+001 -1.350000e+001
         vertex 5.650000e+001 -3.900000e+001 3.050000e+001
         vertex 5.650000e+001 1.100000e+001 3.050000e+001
      endloop
   endfacet
   facet normal -1.000000e+000 0.000000e+000 -0.000000e+000
      outer loop
         vertex 5.650000e+001 -3.900000e+001 -1.350000e+001
         vertex 5.650000e+001 1.100000e+001 3.050000e+001
         vertex 5.650000e+001 1.100000e+001 -1.350000e+001
      endloop
   endfacet
   facet normal 1.000000e+000 0.000000e+000 0.000000e+000
      outer loop
         vertex -6.500000e+000 -3.900000e+001 3.050000e+001
         vertex -6.500000e+000 -3.900000e+001 -1.350000e+001
         vertex -6.500000e+000 1.100000e+001 -1.350000e+001
      endloop
   endfacet
   facet normal 1.000000e+000 0.000000e+000 -0.000000e+000
      outer loop
         vertex -6.500000e+000 -3.900000e+001 3.050000e+001
         vertex -6.500000e+000 1.100000e+001 -1.350000e+001
         vertex -6.500000e+000 1.100000e+001 3.050000e+001
      endloop
   endfacet
   facet normal 0.000000e+000 0.000000e+000 -1.000000e+000
      outer loop
         vertex -3.701779e+000 6.349365e+000 3.050000e+001
         vertex -6.500000e+000 -3.900000e+001 3.050000e+001
         vertex -6.500000e+000 1.100000e+001 3.050000e+001
      endloop
   endfacet
   facet normal 0.000000e+000 -0.000000e+000 -1.000000e+000
      outer loop
         vertex -6.500000e+000 -3.900000e+001 3.050000e+001
         vertex 2.000000e+000 3.000000e+000 3.050000e+001
         vertex 2.000000e+000 -3.900000e+001 3.050000e+001
      endloop
   endfacet
   facet normal 0.000000e+000 0.000000e+000 -1.000000e+000
      outer loop
         vertex 4.800000e+001 3.000000e+000 3.050000e+001
         vertex 5.650000e+001 -3.900000e+001 3.050000e+001
         vertex 4.800000e+001 -3.900000e+001 3.050000e+001
      endloop
   endfacet
   facet normal 0.000000e+000 0.000000e+000 -1.000000e+000
      outer loop
         vertex 2.000000e+000 3.000000e+000 3.050000e+001
         vertex -7.167388e-001 5.823022e+000 3.050000e+001
         vertex -3.073166e-001 6.947901e+000 3.050000e+001
      endloop
   endfacet
   facet normal 0.000000e+000 0.000000e+000 -1.000000e+000
      outer loop
         vertex 2.000000e+000 3.000000e+000 3.050000e+001
         vertex -2.932317e+000 5.432356e+000 3.050000e+001
         vertex -1.753432e+000 5.224487e+000 3.050000e+001
      endloop
   endfacet
   facet normal -0.000000e+000 -0.000000e+000 -1.000000e+000
      outer loop
         vertex -6.500000e+000 1.100000e+001 3.050000e+001
         vertex -3.701779e+000 7.546436e+000 3.050000e+001
         vertex -3.701779e+000 6.349365e+000 3.050000e+001
      endloop
   endfacet
   facet normal -0.000000e+000 0.000000e+000 -1.000000e+000
      outer loop
         vertex -6.500000e+000 1.100000e+001 3.050000e+001
         vertex -1.753432e+000 8.671314e+000 3.050000e+001
         vertex -2.932317e+000 8.463445e+000 3.050000e+001
      endloop
   endfacet
   facet normal 0.000000e+000 0.000000e+000 -1.000000e+000
      outer loop
         vertex 2.000000e+000 3.000000e+000 3.050000e+001
         vertex -3.073166e-001 6.947901e+000 3.050000e+001
         vertex -7.167388e-001 8.072779e+000 3.050000e+001
      endloop
   endfacet
   facet normal 0.000000e+000 0.000000e+000 -1.000000e+000
      outer loop
         vertex 5.650000e+001 -3.900000e+001 3.050000e+001
         vertex 5.224657e+001 5.224487e+000 3.050000e+001
         vertex 5.328326e+001 5.823022e+000 3.050000e+001
      endloop
   endfacet
   facet normal 0.000000e+000 -0.000000e+000 -1.000000e+000
      outer loop
         vertex 4.800000e+001 3.000000e+000 3.050000e+001
         vertex 5.029822e+001 6.349365e+000 3.050000e+001
         vertex 5.106768e+001 5.432356e+000 3.050000e+001
      endloop
   endfacet
   facet normal 0.000000e+000 0.000000e+000 -1.000000e+000
      outer loop
         vertex -7.167388e-001 8.072779e+000 3.050000e+001
         vertex 5.106768e+001 8.463445e+000 3.050000e+001
         vertex 5.029822e+001 7.546436e+000 3.050000e+001
      endloop
   endfacet
   facet normal 0.000000e+000 0.000000e+000 -1.000000e+000
      outer loop
         vertex 5.650000e+001 1.100000e+001 3.050000e+001
         vertex 5.328326e+001 8.072779e+000 3.050000e+001
         vertex 5.224657e+001 8.671314e+000 3.050000e+001
      endloop
   endfacet
   facet normal 0.000000e+000 0.000000e+000 -1.000000e+000
      outer loop
         vertex -2.932317e+000 5.432356e+000 3.050000e+001
         vertex -6.500000e+000 -3.900000e+001 3.050000e+001
         vertex -3.701779e+000 6.349365e+000 3.050000e+001
      endloop
   endfacet
   facet normal 0.000000e+000 -0.000000e+000 -1.000000e+000
      outer loop
         vertex -1.753432e+000 5.224487e+000 3.050000e+001
         vertex -7.167388e-001 5.823022e+000 3.050000e+001
         vertex 2.000000e+000 3.000000e+000 3.050000e+001
      endloop
   endfacet
   facet normal 0.000000e+000 0.000000e+000 -1.000000e+000
      outer loop
         vertex -3.701779e+000 7.546436e+000 3.050000e+001
         vertex -6.500000e+000 1.100000e+001 3.050000e+001
         vertex -2.932317e+000 8.463445e+000 3.050000e+001
      endloop
   endfacet
   facet normal 0.000000e+000 -0.000000e+000 -1.000000e+000
      outer loop
         vertex 4.800000e+001 3.000000e+000 3.050000e+001
         vertex 5.224657e+001 5.224487e+000 3.050000e+001
         vertex 5.650000e+001 -3.900000e+001 3.050000e+001
      endloop
   endfacet
   facet normal 0.000000e+000 0.000000e+000 -1.000000e+000
      outer loop
         vertex 2.000000e+000 3.000000e+000 3.050000e+001
         vertex -7.167388e-001 8.072779e+000 3.050000e+001
         vertex 5.029822e+001 7.546436e+000 3.050000e+001
      endloop
   endfacet
   facet normal 0.000000e+000 0.000000e+000 -1.000000e+000
      outer loop
         vertex 5.369268e+001 6.947901e+000 3.050000e+001
         vertex 5.328326e+001 8.072779e+000 3.050000e+001
         vertex 5.650000e+001 1.100000e+001 3.050000e+001
      endloop
   endfacet
   facet normal 0.000000e+000 0.000000e+000 -1.000000e+000
      outer loop
         vertex 4.800000e+001 3.000000e+000 3.050000e+001
         vertex 2.000000e+000 3.000000e+000 3.050000e+001
         vertex 5.029822e+001 7.546436e+000 3.050000e+001
      endloop
   endfacet
   facet normal 0.000000e+000 -0.000000e+000 -1.000000e+000
      outer loop
         vertex 5.328326e+001 5.823022e+000 3.050000e+001
         vertex 5.650000e+001 1.100000e+001 3.050000e+001
         vertex 5.650000e+001 -3.900000e+001 3.050000e+001
      endloop
   endfacet
   facet normal 0.000000e+000 0.000000e+000 -1.000000e+000
      outer loop
         vertex 5.106768e+001 8.463445e+000 3.050000e+001
         vertex -7.167388e-001 8.072779e+000 3.050000e+001
         vertex -1.753432e+000 8.671314e+000 3.050000e+001
      endloop
   endfacet
   facet normal 0.000000e+000 -0.000000e+000 -1.000000e+000
      outer loop
         vertex 4.800000e+001 3.000000e+000 3.050000e+001
         vertex 5.106768e+001 5.432356e+000 3.050000e+001
         vertex 5.224657e+001 5.224487e+000 3.050000e+001
      endloop
   endfacet
   facet normal -0.000000e+000 0.000000e+000 -1.000000e+000
      outer loop
         vertex 5.650000e+001 1.100000e+001 3.050000e+001
         vertex 5.224657e+001 8.671314e+000 3.050000e+001
         vertex 5.106768e+001 8.463445e+000 3.050000e+001
      endloop
   endfacet
   facet normal 0.000000e+000 -0.000000e+000 -1.000000e+000
      outer loop
         vertex -6.500000e+000 -3.900000e+001 3.050000e+001
         vertex -2.932317e+000 5.432356e+000 3.050000e+001
         vertex 2.000000e+000 3.000000e+000 3.050000e+001
      endloop
   endfacet
   facet normal 0.000000e+000 -0.000000e+000 -1.000000e+000
      outer loop
         vertex 5.328326e+001 5.823022e+000 3.050000e+001
         vertex 5.369268e+001 6.947901e+000 3.050000e+001
         vertex 5.650000e+001 1.100000e+001 3.050000e+001
      endloop
   endfacet
   facet normal -0.000000e+000 0.000000e+000 -1.000000e+000
      outer loop
         vertex -6.500000e+000 1.100000e+001 3.050000e+001
         vertex 5.650000e+001 1.100000e+001 3.050000e+001
         vertex 5.106768e+001 8.463445e+000 3.050000e+001
      endloop
   endfacet
   facet normal 0.000000e+000 -0.000000e+000 -1.000000e+000
      outer loop
         vertex 4.800000e+001 3.000000e+000 3.050000e+001
         vertex 5.029822e+001 7.546436e+000 3.050000e+001
         vertex 5.029822e+001 6.349365e+000 3.050000e+001
      endloop
   endfacet
   facet normal 0.000000e+000 0.000000e+000 -1.000000e+000
      outer loop
         vertex -6.500000e+000 1.100000e+001 3.050000e+001
         vertex 5.106768e+001 8.463445e+000 3.050000e+001
         vertex -1.753432e+000 8.671314e+000 3.050000e+001
      endloop
   endfacet
   facet normal 0.000000e+000 -1.000000e+000 0.000000e+000
      outer loop
         vertex 2.682029e+001 1.100000e+001 1.767748e+001
         vertex 5.650000e+001 1.100000e+001 -1.350000e+001
         vertex 5.650000e+001 1.100000e+001 3.050000e+001
      endloop
   endfacet
   facet normal 0.000000e+000 -1.000000e+000 0.000000e+000
      outer loop
         vertex 1.150000e+001 1.100000e+001 -3.050000e+001
         vertex 3.850000e+001 1.100000e+001 -3.050000e+001
         vertex 3.850000e+001 1.100000e+001 -1.350000e+001
      endloop
   endfacet
   facet normal 0.000000e+000 -1.000000e+000 0.000000e+000
      outer loop
         vertex 2.317971e+001 1.100000e+001 1.767748e+001
         vertex -6.500000e+000 1.100000e+001 -1.350000e+001
         vertex 1.150000e+001 1.100000e+001 -1.350000e+001
      endloop
   endfacet
   facet normal -0.000000e+000 -1.000000e+000 0.000000e+000
      outer loop
         vertex 2.569529e+001 1.100000e+001 2.113988e+001
         vertex 5.650000e+001 1.100000e+001 3.050000e+001
         vertex -6.500000e+000 1.100000e+001 3.050000e+001
      endloop
   endfacet
   facet normal 0.000000e+000 -1.000000e+000 0.000000e+000
      outer loop
         vertex 5.650000e+001 1.100000e+001 3.050000e+001
         vertex 2.569529e+001 1.100000e+001 2.113988e+001
         vertex 2.682029e+001 1.100000e+001 2.032252e+001
      endloop
   endfacet
   facet normal 0.000000e+000 -1.000000e+000 0.000000e+000
      outer loop
         vertex -6.500000e+000 1.100000e+001 3.050000e+001
         vertex 2.317971e+001 1.100000e+001 2.032252e+001
         vertex 2.430471e+001 1.100000e+001 2.113988e+001
      endloop
   endfacet
   facet normal 0.000000e+000 -1.000000e+000 0.000000e+000
      outer loop
         vertex -6.500000e+000 1.100000e+001 3.050000e+001
         vertex 2.317971e+001 1.100000e+001 1.767748e+001
         vertex 2.275000e+001 1.100000e+001 1.900000e+001
      endloop
   endfacet
   facet normal -0.000000e+000 -1.000000e+000 -0.000000e+000
      outer loop
         vertex 3.850000e+001 1.100000e+001 -1.350000e+001
         vertex 2.569529e+001 1.100000e+001 1.686012e+001
         vertex 2.430471e+001 1.100000e+001 1.686012e+001
      endloop
   endfacet
   facet normal 0.000000e+000 -1.000000e+000 -0.000000e+000
      outer loop
         vertex 5.650000e+001 1.100000e+001 3.050000e+001
         vertex 2.725000e+001 1.100000e+001 1.900000e+001
         vertex 2.682029e+001 1.100000e+001 1.767748e+001
      endloop
   endfacet
   facet normal 0.000000e+000 -1.000000e+000 0.000000e+000
      outer loop
         vertex 1.150000e+001 1.100000e+001 -1.350000e+001
         vertex 1.150000e+001 1.100000e+001 -3.050000e+001
         vertex 3.850000e+001 1.100000e+001 -1.350000e+001
      endloop
   endfacet
   facet normal 0.000000e+000 -1.000000e+000 0.000000e+000
      outer loop
         vertex 2.430471e+001 1.100000e+001 2.113988e+001
         vertex 2.569529e+001 1.100000e+001 2.113988e+001
         vertex -6.500000e+000 1.100000e+001 3.050000e+001
      endloop
   endfacet
   facet normal 0.000000e+000 -1.000000e+000 0.000000e+000
      outer loop
         vertex 2.317971e+001 1.100000e+001 2.032252e+001
         vertex -6.500000e+000 1.100000e+001 3.050000e+001
         vertex 2.275000e+001 1.100000e+001 1.900000e+001
      endloop
   endfacet
   facet normal 0.000000e+000 -1.000000e+000 0.000000e+000
      outer loop
         vertex 2.682029e+001 1.100000e+001 2.032252e+001
         vertex 2.725000e+001 1.100000e+001 1.900000e+001
         vertex 5.650000e+001 1.100000e+001 3.050000e+001
      endloop
   endfacet
   facet normal 0.000000e+000 -1.000000e+000 0.000000e+000
      outer loop
         vertex 2.682029e+001 1.100000e+001 1.767748e+001
         vertex 3.850000e+001 1.100000e+001 -1.350000e+001
         vertex 5.650000e+001 1.100000e+001 -1.350000e+001
      endloop
   endfacet
   facet normal -0.000000e+000 -1.000000e+000 0.000000e+000
      outer loop
         vertex 1.150000e+001 1.100000e+001 -1.350000e+001
         vertex 2.430471e+001 1.100000e+001 1.686012e+001
         vertex 2.317971e+001 1.100000e+001 1.767748e+001
      endloop
   endfacet
   facet normal 0.000000e+000 -1.000000e+000 0.000000e+000
      outer loop
         vertex -6.500000e+000 1.100000e+001 3.050000e+001
         vertex -6.500000e+000 1.100000e+001 -1.350000e+001
         vertex 2.317971e+001 1.100000e+001 1.767748e+001
      endloop
   endfacet
   facet normal 0.000000e+000 -1.000000e+000 0.000000e+000
      outer loop
         vertex 2.430471e+001 1.100000e+001 1.686012e+001
         vertex 1.150000e+001 1.100000e+001 -1.350000e+001
         vertex 3.850000e+001 1.100000e+001 -1.350000e+001
      endloop
   endfacet
   facet normal 0.000000e+000 -1.000000e+000 -0.000000e+000
      outer loop
         vertex 3.850000e+001 1.100000e+001 -1.350000e+001
         vertex 2.682029e+001 1.100000e+001 1.767748e+001
         vertex 2.569529e+001 1.100000e+001 1.686012e+001
      endloop
   endfacet
   facet normal -1.000000e+000 0.000000e+000 0.000000e+000
      outer loop
         vertex 4.800000e+001 3.000000e+000 3.300000e+001
         vertex 4.800000e+001 3.000000e+000 3.050000e+001
         vertex 4.800000e+001 -3.900000e+001 3.050000e+001
      endloop
   endfacet
   facet normal -1.000000e+000 0.000000e+000 0.000000e+000
      outer loop
         vertex 4.800000e+001 3.000000e+000 3.300000e+001
         vertex 4.800000e+001 -3.900000e+001 3.050000e+001
         vertex 4.800000e+001 -3.900000e+001 3.300000e+001
      endloop
   endfacet
   facet normal -0.000000e+000 -1.000000e+000 0.000000e+000
      outer loop
         vertex 5.650000e+001 -3.900000e+001 3.050000e+001
         vertex 5.900000e+001 -3.900000e+001 3.300000e+001
         vertex 4.800000e+001 -3.900000e+001 3.300000e+001
      endloop
   endfacet
   facet normal 0.000000e+000 -1.000000e+000 0.000000e+000
      outer loop
         vertex 5.650000e+001 -3.900000e+001 3.050000e+001
         vertex 5.650000e+001 -3.900000e+001 -1.350000e+001
         vertex 5.900000e+001 -3.900000e+001 -1.350000e+001
      endloop
   endfacet
   facet normal 0.000000e+000 -1.000000e+000 0.000000e+000
      outer loop
         vertex 5.650000e+001 -3.900000e+001 3.050000e+001
         vertex 4.800000e+001 -3.900000e+001 3.300000e+001
         vertex 4.800000e+001 -3.900000e+001 3.050000e+001
      endloop
   endfacet
   facet normal 0.000000e+000 -1.000000e+000 0.000000e+000
      outer loop
         vertex 5.650000e+001 -3.900000e+001 3.050000e+001
         vertex 5.900000e+001 -3.900000e+001 -1.350000e+001
         vertex 5.900000e+001 -3.900000e+001 3.300000e+001
      endloop
   endfacet
   facet normal 0.000000e+000 1.000000e+000 0.000000e+000
      outer loop
         vertex -9.000000e+000 1.400000e+001 3.300000e+001
         vertex 5.900000e+001 1.400000e+001 3.300000e+001
         vertex 2.569529e+001 1.400000e+001 2.113988e+001
      endloop
   endfacet
   facet normal 0.000000e+000 1.000000e+000 -0.000000e+000
      outer loop
         vertex 5.900000e+001 1.400000e+001 -1.734589e+001
         vertex 4.100000e+001 1.400000e+001 -1.734589e+001
         vertex 2.682029e+001 1.400000e+001 1.767748e+001
      endloop
   endfacet
   facet normal 0.000000e+000 1.000000e+000 0.000000e+000
      outer loop
         vertex 4.100000e+001 1.400000e+001 -3.300000e+001
         vertex 9.000000e+000 1.400000e+001 -3.300000e+001
         vertex 4.100000e+001 1.400000e+001 -1.734589e+001
      endloop
   endfacet
   facet normal 0.000000e+000 1.000000e+000 0.000000e+000
      outer loop
         vertex -9.000000e+000 1.400000e+001 -1.600000e+001
         vertex -9.000000e+000 1.400000e+001 3.300000e+001
         vertex 2.317971e+001 1.400000e+001 1.767748e+001
      endloop
   endfacet
   facet normal -0.000000e+000 1.000000e+000 0.000000e+000
      outer loop
         vertex 2.725000e+001 1.400000e+001 1.900000e+001
         vertex 2.682029e+001 1.400000e+001 2.032252e+001
         vertex 5.900000e+001 1.400000e+001 3.300000e+001
      endloop
   endfacet
   facet normal 0.000000e+000 1.000000e+000 -0.000000e+000
      outer loop
         vertex 2.569529e+001 1.400000e+001 2.113988e+001
         vertex 2.430471e+001 1.400000e+001 2.113988e+001
         vertex -9.000000e+000 1.400000e+001 3.300000e+001
      endloop
   endfacet
   facet normal 0.000000e+000 1.000000e+000 -0.000000e+000
      outer loop
         vertex 2.317971e+001 1.400000e+001 2.032252e+001
         vertex 2.275000e+001 1.400000e+001 1.900000e+001
         vertex -9.000000e+000 1.400000e+001 3.300000e+001
      endloop
   endfacet
   facet normal 0.000000e+000 1.000000e+000 0.000000e+000
      outer loop
         vertex 2.317971e+001 1.400000e+001 1.767748e+001
         vertex 2.430471e+001 1.400000e+001 1.686012e+001
         vertex 9.000000e+000 1.400000e+001 -1.600000e+001
      endloop
   endfacet
   facet normal 0.000000e+000 1.000000e+000 0.000000e+000
      outer loop
         vertex 2.569529e+001 1.400000e+001 1.686012e+001
         vertex 2.682029e+001 1.400000e+001 1.767748e+001
         vertex 4.100000e+001 1.400000e+001 -1.734589e+001
      endloop
   endfacet
   facet normal -0.000000e+000 1.000000e+000 0.000000e+000
      outer loop
         vertex 5.900000e+001 1.400000e+001 -1.734589e+001
         vertex 2.682029e+001 1.400000e+001 1.767748e+001
         vertex 5.900000e+001 1.400000e+001 3.300000e+001
      endloop
   endfacet
   facet normal 0.000000e+000 1.000000e+000 0.000000e+000
      outer loop
         vertex 2.317971e+001 1.400000e+001 1.767748e+001
         vertex -9.000000e+000 1.400000e+001 3.300000e+001
         vertex 2.275000e+001 1.400000e+001 1.900000e+001
      endloop
   endfacet
   facet normal 0.000000e+000 1.000000e+000 0.000000e+000
      outer loop
         vertex -9.000000e+000 1.400000e+001 3.300000e+001
         vertex 2.430471e+001 1.400000e+001 2.113988e+001
         vertex 2.317971e+001 1.400000e+001 2.032252e+001
      endloop
   endfacet
   facet normal 0.000000e+000 1.000000e+000 0.000000e+000
      outer loop
         vertex 2.569529e+001 1.400000e+001 1.686012e+001
         vertex 4.100000e+001 1.400000e+001 -1.734589e+001
         vertex 9.000000e+000 1.400000e+001 -1.600000e+001
      endloop
   endfacet
   facet normal 0.000000e+000 1.000000e+000 0.000000e+000
      outer loop
         vertex 2.569529e+001 1.400000e+001 1.686012e+001
         vertex 9.000000e+000 1.400000e+001 -1.600000e+001
         vertex 2.430471e+001 1.400000e+001 1.686012e+001
      endloop
   endfacet
   facet normal 0.000000e+000 1.000000e+000 0.000000e+000
      outer loop
         vertex 9.000000e+000 1.400000e+001 -3.300000e+001
         vertex 9.000000e+000 1.400000e+001 -1.600000e+001
         vertex 4.100000e+001 1.400000e+001 -1.734589e+001
      endloop
   endfacet
   facet normal -0.000000e+000 1.000000e+000 0.000000e+000
      outer loop
         vertex 2.682029e+001 1.400000e+001 1.767748e+001
         vertex 2.725000e+001 1.400000e+001 1.900000e+001
         vertex 5.900000e+001 1.400000e+001 3.300000e+001
      endloop
   endfacet
   facet normal 0.000000e+000 1.000000e+000 0.000000e+000
      outer loop
         vertex 2.569529e+001 1.400000e+001 2.113988e+001
         vertex 5.900000e+001 1.400000e+001 3.300000e+001
         vertex 2.682029e+001 1.400000e+001 2.032252e+001
      endloop
   endfacet
   facet normal 0.000000e+000 1.000000e+000 0.000000e+000
      outer loop
         vertex 9.000000e+000 1.400000e+001 -1.600000e+001
         vertex -9.000000e+000 1.400000e+001 -1.600000e+001
         vertex 2.317971e+001 1.400000e+001 1.767748e+001
      endloop
   endfacet
   facet normal 0.000000e+000 -1.000000e+000 0.000000e+000
      outer loop
         vertex 2.000000e+000 -3.900000e+001 3.300000e+001
         vertex -6.500000e+000 -3.900000e+001 3.050000e+001
         vertex 2.000000e+000 -3.900000e+001 3.050000e+001
      endloop
   endfacet
   facet normal 0.000000e+000 -1.000000e+000 0.000000e+000
      outer loop
         vertex -6.500000e+000 -3.900000e+001 3.050000e+001
         vertex -9.000000e+000 -3.900000e+001 -1.350000e+001
         vertex -6.500000e+000 -3.900000e+001 -1.350000e+001
      endloop
   endfacet
   facet normal 0.000000e+000 -1.000000e+000 0.000000e+000
      outer loop
         vertex -9.000000e+000 -3.900000e+001 3.300000e+001
         vertex -6.500000e+000 -3.900000e+001 3.050000e+001
         vertex 2.000000e+000 -3.900000e+001 3.300000e+001
      endloop
   endfacet
   facet normal 0.000000e+000 -1.000000e+000 0.000000e+000
      outer loop
         vertex -6.500000e+000 -3.900000e+001 3.050000e+001
         vertex -9.000000e+000 -3.900000e+001 3.300000e+001
         vertex -9.000000e+000 -3.900000e+001 -1.350000e+001
      endloop
   endfacet
   facet normal 1.000000e+000 0.000000e+000 0.000000e+000
      outer loop
         vertex 2.000000e+000 3.000000e+000 3.050000e+001
         vertex 2.000000e+000 3.000000e+000 3.300000e+001
         vertex 2.000000e+000 -3.900000e+001 3.300000e+001
      endloop
   endfacet
   facet normal 1.000000e+000 0.000000e+000 0.000000e+000
      outer loop
         vertex 2.000000e+000 3.000000e+000 3.050000e+001
         vertex 2.000000e+000 -3.900000e+001 3.300000e+001
         vertex 2.000000e+000 -3.900000e+001 3.050000e+001
      endloop
   endfacet
   facet normal 0.000000e+000 -1.000000e+000 0.000000e+000
      outer loop
         vertex 2.000000e+000 3.000000e+000 3.050000e+001
         vertex 4.800000e+001 3.000000e+000 3.050000e+001
         vertex 4.800000e+001 3.000000e+000 3.300000e+001
      endloop
   endfacet
   facet normal -0.000000e+000 -1.000000e+000 0.000000e+000
      outer loop
         vertex 2.000000e+000 3.000000e+000 3.050000e+001
         vertex 4.800000e+001 3.000000e+000 3.300000e+001
         vertex 2.000000e+000 3.000000e+000 3.300000e+001
      endloop
   endfacet
   facet normal -9.396922e-001 -3.420214e-001 0.000000e+000
      outer loop
         vertex 5.328326e+001 8.072779e+000 3.050000e+001
         vertex 5.369268e+001 6.947901e+000 3.050000e+001
         vertex 5.369268e+001 6.947901e+000 3.300000e+001
      endloop
   endfacet
   facet normal 1.736488e-001 -9.848077e-001 0.000000e+000
      outer loop
         vertex 5.106768e+001 8.463445e+000 3.300000e+001
         vertex 5.106768e+001 8.463445e+000 3.050000e+001
         vertex 5.224657e+001 8.671314e+000 3.050000e+001
      endloop
   endfacet
   facet normal 1.000000e+000 0.000000e+000 0.000000e+000
      outer loop
         vertex 5.029822e+001 6.349365e+000 3.300000e+001
         vertex 5.029822e+001 6.349365e+000 3.050000e+001
         vertex 5.029822e+001 7.546436e+000 3.050000e+001
      endloop
   endfacet
   facet normal 1.736484e-001 9.848077e-001 -0.000000e+000
      outer loop
         vertex 5.224657e+001 5.224487e+000 3.300000e+001
         vertex 5.224657e+001 5.224487e+000 3.050000e+001
         vertex 5.106768e+001 5.432356e+000 3.050000e+001
      endloop
   endfacet
   facet normal -9.396922e-001 3.420213e-001 0.000000e+000
      outer loop
         vertex 5.369268e+001 6.947901e+000 3.300000e+001
         vertex 5.369268e+001 6.947901e+000 3.050000e+001
         vertex 5.328326e+001 5.823022e+000 3.050000e+001
      endloop
   endfacet
   facet normal -4.999998e-001 8.660255e-001 0.000000e+000
      outer loop
         vertex 5.328326e+001 5.823022e+000 3.050000e+001
         vertex 5.224657e+001 5.224487e+000 3.300000e+001
         vertex 5.328326e+001 5.823022e+000 3.300000e+001
      endloop
   endfacet
   facet normal 7.660441e-001 6.427880e-001 0.000000e+000
      outer loop
         vertex 5.029822e+001 6.349365e+000 3.050000e+001
         vertex 5.029822e+001 6.349365e+000 3.300000e+001
         vertex 5.106768e+001 5.432356e+000 3.300000e+001
      endloop
   endfacet
   facet normal 7.660441e-001 -6.427880e-001 0.000000e+000
      outer loop
         vertex 5.106768e+001 8.463445e+000 3.050000e+001
         vertex 5.106768e+001 8.463445e+000 3.300000e+001
         vertex 5.029822e+001 7.546436e+000 3.300000e+001
      endloop
   endfacet
   facet normal -5.000001e-001 -8.660253e-001 -0.000000e+000
      outer loop
         vertex 5.328326e+001 8.072779e+000 3.050000e+001
         vertex 5.328326e+001 8.072779e+000 3.300000e+001
         vertex 5.224657e+001 8.671314e+000 3.300000e+001
      endloop
   endfacet
   facet normal -9.396922e-001 -3.420214e-001 0.000000e+000
      outer loop
         vertex 5.328326e+001 8.072779e+000 3.300000e+001
         vertex 5.328326e+001 8.072779e+000 3.050000e+001
         vertex 5.369268e+001 6.947901e+000 3.300000e+001
      endloop
   endfacet
   facet normal 1.736484e-001 9.848077e-001 0.000000e+000
      outer loop
         vertex 5.106768e+001 5.432356e+000 3.300000e+001
         vertex 5.224657e+001 5.224487e+000 3.300000e+001
         vertex 5.106768e+001 5.432356e+000 3.050000e+001
      endloop
   endfacet
   facet normal -9.396922e-001 3.420213e-001 0.000000e+000
      outer loop
         vertex 5.369268e+001 6.947901e+000 3.300000e+001
         vertex 5.328326e+001 5.823022e+000 3.050000e+001
         vertex 5.328326e+001 5.823022e+000 3.300000e+001
      endloop
   endfacet
   facet normal -5.000001e-001 -8.660253e-001 0.000000e+000
      outer loop
         vertex 5.224657e+001 8.671314e+000 3.050000e+001
         vertex 5.328326e+001 8.072779e+000 3.050000e+001
         vertex 5.224657e+001 8.671314e+000 3.300000e+001
      endloop
   endfacet
   facet normal 7.660441e-001 -6.427880e-001 0.000000e+000
      outer loop
         vertex 5.029822e+001 7.546436e+000 3.300000e+001
         vertex 5.029822e+001 7.546436e+000 3.050000e+001
         vertex 5.106768e+001 8.463445e+000 3.050000e+001
      endloop
   endfacet
   facet normal -4.999998e-001 8.660255e-001 0.000000e+000
      outer loop
         vertex 5.224657e+001 5.224487e+000 3.300000e+001
         vertex 5.328326e+001 5.823022e+000 3.050000e+001
         vertex 5.224657e+001 5.224487e+000 3.050000e+001
      endloop
   endfacet
   facet normal 1.736488e-001 -9.848077e-001 0.000000e+000
      outer loop
         vertex 5.224657e+001 8.671314e+000 3.050000e+001
         vertex 5.224657e+001 8.671314e+000 3.300000e+001
         vertex 5.106768e+001 8.463445e+000 3.300000e+001
      endloop
   endfacet
   facet normal 7.660441e-001 6.427880e-001 0.000000e+000
      outer loop
         vertex 5.106768e+001 5.432356e+000 3.050000e+001
         vertex 5.029822e+001 6.349365e+000 3.050000e+001
         vertex 5.106768e+001 5.432356e+000 3.300000e+001
      endloop
   endfacet
   facet normal 1.000000e+000 0.000000e+000 0.000000e+000
      outer loop
         vertex 5.029822e+001 7.546436e+000 3.050000e+001
         vertex 5.029822e+001 7.546436e+000 3.300000e+001
         vertex 5.029822e+001 6.349365e+000 3.300000e+001
      endloop
   endfacet
   facet normal -9.396926e-001 -3.420202e-001 0.000000e+000
      outer loop
         vertex -7.167388e-001 8.072779e+000 3.050000e+001
         vertex -3.073166e-001 6.947901e+000 3.050000e+001
         vertex -3.073166e-001 6.947901e+000 3.300000e+001
      endloop
   endfacet
   facet normal 1.736485e-001 -9.848077e-001 0.000000e+000
      outer loop
         vertex -2.932317e+000 8.463445e+000 3.300000e+001
         vertex -2.932317e+000 8.463445e+000 3.050000e+001
         vertex -1.753432e+000 8.671314e+000 3.050000e+001
      endloop
   endfacet
   facet normal 1.000000e+000 0.000000e+000 0.000000e+000
      outer loop
         vertex -3.701779e+000 6.349365e+000 3.300000e+001
         vertex -3.701779e+000 6.349365e+000 3.050000e+001
         vertex -3.701779e+000 7.546436e+000 3.050000e+001
      endloop
   endfacet
   facet normal 1.736481e-001 9.848078e-001 -0.000000e+000
      outer loop
         vertex -1.753432e+000 5.224487e+000 3.300000e+001
         vertex -1.753432e+000 5.224487e+000 3.050000e+001
         vertex -2.932317e+000 5.432356e+000 3.050000e+001
      endloop
   endfacet
   facet normal -9.396926e-001 3.420201e-001 0.000000e+000
      outer loop
         vertex -3.073166e-001 6.947901e+000 3.300000e+001
         vertex -3.073166e-001 6.947901e+000 3.050000e+001
         vertex -7.167388e-001 5.823022e+000 3.050000e+001
      endloop
   endfacet
   facet normal -4.999999e-001 8.660255e-001 0.000000e+000
      outer loop
         vertex -7.167388e-001 5.823022e+000 3.050000e+001
         vertex -1.753432e+000 5.224487e+000 3.300000e+001
         vertex -7.167388e-001 5.823022e+000 3.300000e+001
      endloop
   endfacet
   facet normal 7.660443e-001 6.427878e-001 0.000000e+000
      outer loop
         vertex -3.701779e+000 6.349365e+000 3.050000e+001
         vertex -3.701779e+000 6.349365e+000 3.300000e+001
         vertex -2.932317e+000 5.432356e+000 3.300000e+001
      endloop
   endfacet
   facet normal 7.660443e-001 -6.427878e-001 0.000000e+000
      outer loop
         vertex -2.932317e+000 8.463445e+000 3.050000e+001
         vertex -2.932317e+000 8.463445e+000 3.300000e+001
         vertex -3.701779e+000 7.546436e+000 3.300000e+001
      endloop
   endfacet
   facet normal -5.000002e-001 -8.660253e-001 -0.000000e+000
      outer loop
         vertex -7.167388e-001 8.072779e+000 3.050000e+001
         vertex -7.167388e-001 8.072779e+000 3.300000e+001
         vertex -1.753432e+000 8.671314e+000 3.300000e+001
      endloop
   endfacet
   facet normal -9.396926e-001 -3.420202e-001 0.000000e+000
      outer loop
         vertex -7.167388e-001 8.072779e+000 3.300000e+001
         vertex -7.167388e-001 8.072779e+000 3.050000e+001
         vertex -3.073166e-001 6.947901e+000 3.300000e+001
      endloop
   endfacet
   facet normal 1.736481e-001 9.848078e-001 0.000000e+000
      outer loop
         vertex -2.932317e+000 5.432356e+000 3.300000e+001
         vertex -1.753432e+000 5.224487e+000 3.300000e+001
         vertex -2.932317e+000 5.432356e+000 3.050000e+001
      endloop
   endfacet
   facet normal -9.396926e-001 3.420201e-001 0.000000e+000
      outer loop
         vertex -3.073166e-001 6.947901e+000 3.300000e+001
         vertex -7.167388e-001 5.823022e+000 3.050000e+001
         vertex -7.167388e-001 5.823022e+000 3.300000e+001
      endloop
   endfacet
   facet normal -5.000002e-001 -8.660253e-001 0.000000e+000
      outer loop
         vertex -1.753432e+000 8.671314e+000 3.050000e+001
         vertex -7.167388e-001 8.072779e+000 3.050000e+001
         vertex -1.753432e+000 8.671314e+000 3.300000e+001
      endloop
   endfacet
   facet normal 7.660443e-001 -6.427878e-001 0.000000e+000
      outer loop
         vertex -3.701779e+000 7.546436e+000 3.300000e+001
         vertex -3.701779e+000 7.546436e+000 3.050000e+001
         vertex -2.932317e+000 8.463445e+000 3.050000e+001
      endloop
   endfacet
   facet normal -4.999999e-001 8.660255e-001 0.000000e+000
      outer loop
         vertex -1.753432e+000 5.224487e+000 3.300000e+001
         vertex -7.167388e-001 5.823022e+000 3.050000e+001
         vertex -1.753432e+000 5.224487e+000 3.050000e+001
      endloop
   endfacet
   facet normal 1.736485e-001 -9.848077e-001 0.000000e+000
      outer loop
         vertex -1.753432e+000 8.671314e+000 3.050000e+001
         vertex -1.753432e+000 8.671314e+000 3.300000e+001
         vertex -2.932317e+000 8.463445e+000 3.300000e+001
      endloop
   endfacet
   facet normal 7.660443e-001 6.427878e-001 0.000000e+000
      outer loop
         vertex -2.932317e+000 5.432356e+000 3.050000e+001
         vertex -3.701779e+000 6.349365e+000 3.050000e+001
         vertex -2.932317e+000 5.432356e+000 3.300000e+001
      endloop
   endfacet
   facet normal 1.000000e+000 0.000000e+000 0.000000e+000
      outer loop
         vertex -3.701779e+000 7.546436e+000 3.050000e+001
         vertex -3.701779e+000 7.546436e+000 3.300000e+001
         vertex -3.701779e+000 6.349365e+000 3.300000e+001
      endloop
   endfacet
   facet normal 0.000000e+000 -1.000000e+000 -0.000000e+000
      outer loop
         vertex 5.900000e+001 -4.200000e+001 -1.734589e+001
         vertex 5.900000e+001 -4.200000e+001 -1.350000e+001
         vertex 4.100000e+001 -4.200000e+001 -1.734589e+001
      endloop
   endfacet
   facet normal 0.000000e+000 -1.000000e+000 0.000000e+000
      outer loop
         vertex -9.000000e+000 -4.200000e+001 -1.350000e+001
         vertex -9.000000e+000 -4.200000e+001 -1.600000e+001
         vertex 9.000000e+000 -4.200000e+001 -1.600000e+001
      endloop
   endfacet
   facet normal 0.000000e+000 -1.000000e+000 0.000000e+000
      outer loop
         vertex 9.000000e+000 -4.200000e+001 -3.300000e+001
         vertex 4.100000e+001 -4.200000e+001 -3.300000e+001
         vertex 4.100000e+001 -4.200000e+001 -1.734589e+001
      endloop
   endfacet
   facet normal 0.000000e+000 -1.000000e+000 0.000000e+000
      outer loop
         vertex -9.000000e+000 -4.200000e+001 -1.350000e+001
         vertex 9.000000e+000 -4.200000e+001 -1.600000e+001
         vertex 5.900000e+001 -4.200000e+001 -1.350000e+001
      endloop
   endfacet
   facet normal 0.000000e+000 -1.000000e+000 0.000000e+000
      outer loop
         vertex 9.000000e+000 -4.200000e+001 -1.600000e+001
         vertex 9.000000e+000 -4.200000e+001 -3.300000e+001
         vertex 4.100000e+001 -4.200000e+001 -1.734589e+001
      endloop
   endfacet
   facet normal 0.000000e+000 -1.000000e+000 0.000000e+000
      outer loop
         vertex 5.900000e+001 -4.200000e+001 -1.350000e+001
         vertex 9.000000e+000 -4.200000e+001 -1.600000e+001
         vertex 4.100000e+001 -4.200000e+001 -1.734589e+001
      endloop
   endfacet
   facet normal 0.000000e+000 1.000000e+000 0.000000e+000
      outer loop
         vertex 1.150000e+001 -3.900000e+001 -1.350000e+001
         vertex 3.850000e+001 -3.900000e+001 -1.350000e+001
         vertex 3.850000e+001 -3.900000e+001 -3.050000e+001
      endloop
   endfacet
   facet normal 0.000000e+000 1.000000e+000 0.000000e+000
      outer loop
         vertex 1.150000e+001 -3.900000e+001 -1.350000e+001
         vertex 3.850000e+001 -3.900000e+001 -3.050000e+001
         vertex 1.150000e+001 -3.900000e+001 -3.050000e+001
      endloop
   endfacet
   facet normal -9.510564e-001 0.000000e+000 3.090172e-001
      outer loop
         vertex 2.682029e+001 1.100000e+001 1.767748e+001
         vertex 2.725000e+001 1.100000e+001 1.900000e+001
         vertex 2.725000e+001 1.400000e+001 1.900000e+001
      endloop
   endfacet
   facet normal 0.000000e+000 0.000000e+000 1.000000e+000
      outer loop
         vertex 2.430471e+001 1.400000e+001 1.686012e+001
         vertex 2.430471e+001 1.100000e+001 1.686012e+001
         vertex 2.569529e+001 1.100000e+001 1.686012e+001
      endloop
   endfacet
   facet normal 9.510564e-001 -0.000000e+000 3.090172e-001
      outer loop
         vertex 2.275000e+001 1.400000e+001 1.900000e+001
         vertex 2.275000e+001 1.100000e+001 1.900000e+001
         vertex 2.317971e+001 1.100000e+001 1.767748e+001
      endloop
   endfacet
   facet normal 5.877851e-001 0.000000e+000 -8.090171e-001
      outer loop
         vertex 2.430471e+001 1.400000e+001 2.113988e+001
         vertex 2.430471e+001 1.100000e+001 2.113988e+001
         vertex 2.317971e+001 1.100000e+001 2.032252e+001
      endloop
   endfacet
   facet normal -5.877851e-001 0.000000e+000 -8.090171e-001
      outer loop
         vertex 2.682029e+001 1.400000e+001 2.032252e+001
         vertex 2.682029e+001 1.100000e+001 2.032252e+001
         vertex 2.569529e+001 1.100000e+001 2.113988e+001
      endloop
   endfacet
   facet normal -9.510564e-001 -0.000000e+000 -3.090172e-001
      outer loop
         vertex 2.682029e+001 1.100000e+001 2.032252e+001
         vertex 2.725000e+001 1.400000e+001 1.900000e+001
         vertex 2.725000e+001 1.100000e+001 1.900000e+001
      endloop
   endfacet
   facet normal 0.000000e+000 0.000000e+000 -1.000000e+000
      outer loop
         vertex 2.430471e+001 1.100000e+001 2.113988e+001
         vertex 2.430471e+001 1.400000e+001 2.113988e+001
         vertex 2.569529e+001 1.400000e+001 2.113988e+001
      endloop
   endfacet
   facet normal 9.510564e-001 0.000000e+000 -3.090172e-001
      outer loop
         vertex 2.275000e+001 1.100000e+001 1.900000e+001
         vertex 2.275000e+001 1.400000e+001 1.900000e+001
         vertex 2.317971e+001 1.400000e+001 2.032252e+001
      endloop
   endfacet
   facet normal 5.877851e-001 0.000000e+000 8.090171e-001
      outer loop
         vertex 2.430471e+001 1.100000e+001 1.686012e+001
         vertex 2.430471e+001 1.400000e+001 1.686012e+001
         vertex 2.317971e+001 1.400000e+001 1.767748e+001
      endloop
   endfacet
   facet normal -5.877851e-001 0.000000e+000 8.090171e-001
      outer loop
         vertex 2.682029e+001 1.100000e+001 1.767748e+001
         vertex 2.682029e+001 1.400000e+001 1.767748e+001
         vertex 2.569529e+001 1.400000e+001 1.686012e+001
      endloop
   endfacet
   facet normal -9.510564e-001 0.000000e+000 3.090172e-001
      outer loop
         vertex 2.682029e+001 1.400000e+001 1.767748e+001
         vertex 2.682029e+001 1.100000e+001 1.767748e+001
         vertex 2.725000e+001 1.400000e+001 1.900000e+001
      endloop
   endfacet
   facet normal 5.877851e-001 0.000000e+000 -8.090171e-001
      outer loop
         vertex 2.317971e+001 1.400000e+001 2.032252e+001
         vertex 2.430471e+001 1.400000e+001 2.113988e+001
         vertex 2.317971e+001 1.100000e+001 2.032252e+001
      endloop
   endfacet
   facet normal -9.510564e-001 0.000000e+000 -3.090172e-001
      outer loop
         vertex 2.682029e+001 1.400000e+001 2.032252e+001
         vertex 2.725000e+001 1.400000e+001 1.900000e+001
         vertex 2.682029e+001 1.100000e+001 2.032252e+001
      endloop
   endfacet
   facet normal -5.877851e-001 0.000000e+000 8.090171e-001
      outer loop
         vertex 2.569529e+001 1.100000e+001 1.686012e+001
         vertex 2.682029e+001 1.100000e+001 1.767748e+001
         vertex 2.569529e+001 1.400000e+001 1.686012e+001
      endloop
   endfacet
   facet normal 5.877851e-001 -0.000000e+000 8.090171e-001
      outer loop
         vertex 2.317971e+001 1.400000e+001 1.767748e+001
         vertex 2.317971e+001 1.100000e+001 1.767748e+001
         vertex 2.430471e+001 1.100000e+001 1.686012e+001
      endloop
   endfacet
   facet normal 0.000000e+000 0.000000e+000 -1.000000e+000
      outer loop
         vertex 2.569529e+001 1.400000e+001 2.113988e+001
         vertex 2.569529e+001 1.100000e+001 2.113988e+001
         vertex 2.430471e+001 1.100000e+001 2.113988e+001
      endloop
   endfacet
   facet normal 9.510564e-001 0.000000e+000 3.090172e-001
      outer loop
         vertex 2.317971e+001 1.100000e+001 1.767748e+001
         vertex 2.317971e+001 1.400000e+001 1.767748e+001
         vertex 2.275000e+001 1.400000e+001 1.900000e+001
      endloop
   endfacet
   facet normal -0.000000e+000 0.000000e+000 1.000000e+000
      outer loop
         vertex 2.569529e+001 1.400000e+001 1.686012e+001
         vertex 2.430471e+001 1.400000e+001 1.686012e+001
         vertex 2.569529e+001 1.100000e+001 1.686012e+001
      endloop
   endfacet
   facet normal 9.510564e-001 0.000000e+000 -3.090172e-001
      outer loop
         vertex 2.275000e+001 1.100000e+001 1.900000e+001
         vertex 2.317971e+001 1.400000e+001 2.032252e+001
         vertex 2.317971e+001 1.100000e+001 2.032252e+001
      endloop
   endfacet
   facet normal -5.877851e-001 -0.000000e+000 -8.090171e-001
      outer loop
         vertex 2.569529e+001 1.100000e+001 2.113988e+001
         vertex 2.569529e+001 1.400000e+001 2.113988e+001
         vertex 2.682029e+001 1.400000e+001 2.032252e+001
      endloop
   endfacet
endsolid
