solid 
   facet normal 0.000000e+000 0.000000e+000 -1.000000e+000
      outer loop
         vertex 2.000000e+000 1.100000e+001 -1.000000e+001
         vertex 2.000000e+000 6.000000e+000 -1.000000e+001
         vertex -3.819660e-001 8.175570e+000 -1.000000e+001
      endloop
   endfacet
   facet normal 0.000000e+000 0.000000e+000 -1.000000e+000
      outer loop
         vertex 4.800000e+001 6.000000e+000 -1.000000e+001
         vertex 4.800000e+001 1.100000e+001 -1.000000e+001
         vertex 5.038197e+001 8.175570e+000 -1.000000e+001
      endloop
   endfacet
   facet normal 0.000000e+000 0.000000e+000 -1.000000e+000
      outer loop
         vertex 5.600000e+001 1.100000e+001 -1.000000e+001
         vertex 5.600000e+001 -7.600000e+001 -1.000000e+001
         vertex 5.300000e+001 -9.000000e+000 -1.000000e+001
      endloop
   endfacet
   facet normal 0.000000e+000 0.000000e+000 -1.000000e+000
      outer loop
         vertex 4.800000e+001 -7.600000e+001 -1.000000e+001
         vertex 4.800000e+001 -7.100000e+001 -1.000000e+001
         vertex 5.038197e+001 -7.317557e+001 -1.000000e+001
      endloop
   endfacet
   facet normal 0.000000e+000 0.000000e+000 -1.000000e+000
      outer loop
         vertex 2.000000e+000 -7.100000e+001 -1.000000e+001
         vertex 2.000000e+000 -7.600000e+001 -1.000000e+001
         vertex -3.819660e-001 -7.317557e+001 -1.000000e+001
      endloop
   endfacet
   facet normal 0.000000e+000 0.000000e+000 -1.000000e+000
      outer loop
         vertex -6.000000e+000 -7.600000e+001 -1.000000e+001
         vertex -6.000000e+000 1.100000e+001 -1.000000e+001
         vertex -3.000000e+000 -9.000000e+000 -1.000000e+001
      endloop
   endfacet
   facet normal 0.000000e+000 0.000000e+000 -1.000000e+000
      outer loop
         vertex 5.038197e+001 -7.082443e+001 -1.000000e+001
         vertex 5.000000e+001 -7.200000e+001 -1.000000e+001
         vertex 4.800000e+001 -7.100000e+001 -1.000000e+001
      endloop
   endfacet
   facet normal -0.000000e+000 0.000000e+000 -1.000000e+000
      outer loop
         vertex 5.038197e+001 -7.317557e+001 -1.000000e+001
         vertex 5.138197e+001 -7.390211e+001 -1.000000e+001
         vertex 4.800000e+001 -7.600000e+001 -1.000000e+001
      endloop
   endfacet
   facet normal 0.000000e+000 -0.000000e+000 -1.000000e+000
      outer loop
         vertex 5.261803e+001 -7.390211e+001 -1.000000e+001
         vertex 5.361803e+001 -7.317557e+001 -1.000000e+001
         vertex 5.600000e+001 -7.600000e+001 -1.000000e+001
      endloop
   endfacet
   facet normal 0.000000e+000 0.000000e+000 -1.000000e+000
      outer loop
         vertex 5.400000e+001 -7.200000e+001 -1.000000e+001
         vertex 5.361803e+001 -7.082443e+001 -1.000000e+001
         vertex 5.300000e+001 -6.400000e+001 -1.000000e+001
      endloop
   endfacet
   facet normal 0.000000e+000 0.000000e+000 -1.000000e+000
      outer loop
         vertex 5.261803e+001 -7.009789e+001 -1.000000e+001
         vertex 5.138197e+001 -7.009789e+001 -1.000000e+001
         vertex 5.300000e+001 -6.400000e+001 -1.000000e+001
      endloop
   endfacet
   facet normal 0.000000e+000 0.000000e+000 -1.000000e+000
      outer loop
         vertex -3.618034e+000 -7.082443e+001 -1.000000e+001
         vertex -4.000000e+000 -7.200000e+001 -1.000000e+001
         vertex -3.000000e+000 -6.400000e+001 -1.000000e+001
      endloop
   endfacet
   facet normal -0.000000e+000 0.000000e+000 -1.000000e+000
      outer loop
         vertex -3.618034e+000 -7.317557e+001 -1.000000e+001
         vertex -2.618034e+000 -7.390211e+001 -1.000000e+001
         vertex -6.000000e+000 -7.600000e+001 -1.000000e+001
      endloop
   endfacet
   facet normal 0.000000e+000 -0.000000e+000 -1.000000e+000
      outer loop
         vertex -1.381966e+000 -7.390211e+001 -1.000000e+001
         vertex -3.819660e-001 -7.317557e+001 -1.000000e+001
         vertex 2.000000e+000 -7.600000e+001 -1.000000e+001
      endloop
   endfacet
   facet normal 0.000000e+000 0.000000e+000 -1.000000e+000
      outer loop
         vertex 0.000000e+000 -7.200000e+001 -1.000000e+001
         vertex -3.819660e-001 -7.082443e+001 -1.000000e+001
         vertex 2.000000e+000 -7.100000e+001 -1.000000e+001
      endloop
   endfacet
   facet normal 0.000000e+000 0.000000e+000 -1.000000e+000
      outer loop
         vertex -1.381966e+000 -7.009789e+001 -1.000000e+001
         vertex -2.618034e+000 -7.009789e+001 -1.000000e+001
         vertex -3.000000e+000 -6.400000e+001 -1.000000e+001
      endloop
   endfacet
   facet normal -0.000000e+000 0.000000e+000 -1.000000e+000
      outer loop
         vertex 5.038197e+001 8.175570e+000 -1.000000e+001
         vertex 5.000000e+001 7.000000e+000 -1.000000e+001
         vertex 4.800000e+001 6.000000e+000 -1.000000e+001
      endloop
   endfacet
   facet normal 0.000000e+000 0.000000e+000 -1.000000e+000
      outer loop
         vertex 5.038197e+001 5.824430e+000 -1.000000e+001
         vertex 5.138197e+001 5.097887e+000 -1.000000e+001
         vertex 4.800000e+001 6.000000e+000 -1.000000e+001
      endloop
   endfacet
   facet normal 0.000000e+000 0.000000e+000 -1.000000e+000
      outer loop
         vertex 5.261803e+001 5.097887e+000 -1.000000e+001
         vertex 5.361803e+001 5.824430e+000 -1.000000e+001
         vertex 5.300000e+001 -9.000000e+000 -1.000000e+001
      endloop
   endfacet
   facet normal 0.000000e+000 0.000000e+000 -1.000000e+000
      outer loop
         vertex 5.400000e+001 7.000000e+000 -1.000000e+001
         vertex 5.361803e+001 8.175570e+000 -1.000000e+001
         vertex 5.600000e+001 1.100000e+001 -1.000000e+001
      endloop
   endfacet
   facet normal 0.000000e+000 0.000000e+000 -1.000000e+000
      outer loop
         vertex 5.261803e+001 8.902113e+000 -1.000000e+001
         vertex 5.138197e+001 8.902113e+000 -1.000000e+001
         vertex 4.800000e+001 1.100000e+001 -1.000000e+001
      endloop
   endfacet
   facet normal 0.000000e+000 0.000000e+000 -1.000000e+000
      outer loop
         vertex -3.618034e+000 8.175570e+000 -1.000000e+001
         vertex -4.000000e+000 7.000000e+000 -1.000000e+001
         vertex -6.000000e+000 1.100000e+001 -1.000000e+001
      endloop
   endfacet
   facet normal -0.000000e+000 0.000000e+000 -1.000000e+000
      outer loop
         vertex -3.618034e+000 5.824430e+000 -1.000000e+001
         vertex -2.618034e+000 5.097887e+000 -1.000000e+001
         vertex -3.000000e+000 -9.000000e+000 -1.000000e+001
      endloop
   endfacet
   facet normal 0.000000e+000 -0.000000e+000 -1.000000e+000
      outer loop
         vertex -1.381966e+000 5.097887e+000 -1.000000e+001
         vertex -3.819660e-001 5.824430e+000 -1.000000e+001
         vertex 2.000000e+000 6.000000e+000 -1.000000e+001
      endloop
   endfacet
   facet normal 0.000000e+000 0.000000e+000 -1.000000e+000
      outer loop
         vertex 0.000000e+000 7.000000e+000 -1.000000e+001
         vertex -3.819660e-001 8.175570e+000 -1.000000e+001
         vertex 2.000000e+000 6.000000e+000 -1.000000e+001
      endloop
   endfacet
   facet normal 0.000000e+000 0.000000e+000 -1.000000e+000
      outer loop
         vertex -1.381966e+000 8.902113e+000 -1.000000e+001
         vertex -2.618034e+000 8.902113e+000 -1.000000e+001
         vertex 2.000000e+000 1.100000e+001 -1.000000e+001
      endloop
   endfacet
   facet normal 0.000000e+000 0.000000e+000 -1.000000e+000
      outer loop
         vertex 4.116117e+000 -4.116117e+000 -1.000000e+001
         vertex 3.750000e+000 -5.000000e+000 -1.000000e+001
         vertex -2.618034e+000 5.097887e+000 -1.000000e+001
      endloop
   endfacet
   facet normal -0.000000e+000 0.000000e+000 -1.000000e+000
      outer loop
         vertex 4.116117e+000 -5.883883e+000 -1.000000e+001
         vertex 5.000000e+000 -6.250000e+000 -1.000000e+001
         vertex -3.000000e+000 -9.000000e+000 -1.000000e+001
      endloop
   endfacet
   facet normal 0.000000e+000 -0.000000e+000 -1.000000e+000
      outer loop
         vertex 5.883883e+000 -5.883883e+000 -1.000000e+001
         vertex 6.250000e+000 -5.000000e+000 -1.000000e+001
         vertex 9.000000e+000 -9.000000e+000 -1.000000e+001
      endloop
   endfacet
   facet normal 0.000000e+000 0.000000e+000 -1.000000e+000
      outer loop
         vertex 5.883883e+000 -4.116117e+000 -1.000000e+001
         vertex 5.000000e+000 -3.750000e+000 -1.000000e+001
         vertex 9.000000e+000 3.000000e+000 -1.000000e+001
      endloop
   endfacet
   facet normal 0.000000e+000 0.000000e+000 -1.000000e+000
      outer loop
         vertex 4.411612e+001 -4.116117e+000 -1.000000e+001
         vertex 4.375000e+001 -5.000000e+000 -1.000000e+001
         vertex 4.100000e+001 3.000000e+000 -1.000000e+001
      endloop
   endfacet
   facet normal -0.000000e+000 0.000000e+000 -1.000000e+000
      outer loop
         vertex 4.411612e+001 -5.883883e+000 -1.000000e+001
         vertex 4.500000e+001 -6.250000e+000 -1.000000e+001
         vertex 4.100000e+001 -9.000000e+000 -1.000000e+001
      endloop
   endfacet
   facet normal 0.000000e+000 -0.000000e+000 -1.000000e+000
      outer loop
         vertex 4.588388e+001 -5.883883e+000 -1.000000e+001
         vertex 4.625000e+001 -5.000000e+000 -1.000000e+001
         vertex 5.300000e+001 -9.000000e+000 -1.000000e+001
      endloop
   endfacet
   facet normal 0.000000e+000 0.000000e+000 -1.000000e+000
      outer loop
         vertex 4.588388e+001 -4.116117e+000 -1.000000e+001
         vertex 4.500000e+001 -3.750000e+000 -1.000000e+001
         vertex 4.800000e+001 6.000000e+000 -1.000000e+001
      endloop
   endfacet
   facet normal 0.000000e+000 0.000000e+000 -1.000000e+000
      outer loop
         vertex 9.000000e+000 3.000000e+000 -1.000000e+001
         vertex 9.000000e+000 -9.000000e+000 -1.000000e+001
         vertex 6.250000e+000 -5.000000e+000 -1.000000e+001
      endloop
   endfacet
   facet normal -0.000000e+000 0.000000e+000 -1.000000e+000
      outer loop
         vertex -3.000000e+000 -9.000000e+000 -1.000000e+001
         vertex -3.000000e+000 -6.400000e+001 -1.000000e+001
         vertex -6.000000e+000 -7.600000e+001 -1.000000e+001
      endloop
   endfacet
   facet normal 0.000000e+000 0.000000e+000 -1.000000e+000
      outer loop
         vertex 5.300000e+001 -6.400000e+001 -1.000000e+001
         vertex 5.300000e+001 -9.000000e+000 -1.000000e+001
         vertex 5.600000e+001 -7.600000e+001 -1.000000e+001
      endloop
   endfacet
   facet normal 0.000000e+000 0.000000e+000 -1.000000e+000
      outer loop
         vertex 4.100000e+001 -9.000000e+000 -1.000000e+001
         vertex 4.100000e+001 3.000000e+000 -1.000000e+001
         vertex 4.375000e+001 -5.000000e+000 -1.000000e+001
      endloop
   endfacet
   facet normal 0.000000e+000 0.000000e+000 -1.000000e+000
      outer loop
         vertex 2.000000e+000 1.100000e+001 -1.000000e+001
         vertex -3.819660e-001 8.175570e+000 -1.000000e+001
         vertex -1.381966e+000 8.902113e+000 -1.000000e+001
      endloop
   endfacet
   facet normal 0.000000e+000 0.000000e+000 -1.000000e+000
      outer loop
         vertex 5.038197e+001 -7.317557e+001 -1.000000e+001
         vertex 4.800000e+001 -7.100000e+001 -1.000000e+001
         vertex 5.000000e+001 -7.200000e+001 -1.000000e+001
      endloop
   endfacet
   facet normal 0.000000e+000 0.000000e+000 -1.000000e+000
      outer loop
         vertex 5.038197e+001 -7.082443e+001 -1.000000e+001
         vertex 4.800000e+001 -7.100000e+001 -1.000000e+001
         vertex 5.138197e+001 -7.009789e+001 -1.000000e+001
      endloop
   endfacet
   facet normal 0.000000e+000 0.000000e+000 -1.000000e+000
      outer loop
         vertex 5.600000e+001 -7.600000e+001 -1.000000e+001
         vertex 5.361803e+001 -7.317557e+001 -1.000000e+001
         vertex 5.400000e+001 -7.200000e+001 -1.000000e+001
      endloop
   endfacet
   facet normal 0.000000e+000 -0.000000e+000 -1.000000e+000
      outer loop
         vertex 5.261803e+001 -7.009789e+001 -1.000000e+001
         vertex 5.300000e+001 -6.400000e+001 -1.000000e+001
         vertex 5.361803e+001 -7.082443e+001 -1.000000e+001
      endloop
   endfacet
   facet normal 0.000000e+000 0.000000e+000 -1.000000e+000
      outer loop
         vertex -3.618034e+000 -7.317557e+001 -1.000000e+001
         vertex -6.000000e+000 -7.600000e+001 -1.000000e+001
         vertex -4.000000e+000 -7.200000e+001 -1.000000e+001
      endloop
   endfacet
   facet normal 0.000000e+000 0.000000e+000 -1.000000e+000
      outer loop
         vertex 0.000000e+000 -7.200000e+001 -1.000000e+001
         vertex 2.000000e+000 -7.100000e+001 -1.000000e+001
         vertex -3.819660e-001 -7.317557e+001 -1.000000e+001
      endloop
   endfacet
   facet normal 0.000000e+000 -0.000000e+000 -1.000000e+000
      outer loop
         vertex 4.800000e+001 6.000000e+000 -1.000000e+001
         vertex 5.000000e+001 7.000000e+000 -1.000000e+001
         vertex 5.038197e+001 5.824430e+000 -1.000000e+001
      endloop
   endfacet
   facet normal 0.000000e+000 -0.000000e+000 -1.000000e+000
      outer loop
         vertex 5.300000e+001 -9.000000e+000 -1.000000e+001
         vertex 5.361803e+001 5.824430e+000 -1.000000e+001
         vertex 5.600000e+001 1.100000e+001 -1.000000e+001
      endloop
   endfacet
   facet normal 0.000000e+000 0.000000e+000 -1.000000e+000
      outer loop
         vertex 5.261803e+001 8.902113e+000 -1.000000e+001
         vertex 4.800000e+001 1.100000e+001 -1.000000e+001
         vertex 5.600000e+001 1.100000e+001 -1.000000e+001
      endloop
   endfacet
   facet normal -0.000000e+000 -0.000000e+000 -1.000000e+000
      outer loop
         vertex -6.000000e+000 1.100000e+001 -1.000000e+001
         vertex -4.000000e+000 7.000000e+000 -1.000000e+001
         vertex -3.618034e+000 5.824430e+000 -1.000000e+001
      endloop
   endfacet
   facet normal 0.000000e+000 -0.000000e+000 -1.000000e+000
      outer loop
         vertex -1.381966e+000 5.097887e+000 -1.000000e+001
         vertex 2.000000e+000 6.000000e+000 -1.000000e+001
         vertex 4.116117e+000 -4.116117e+000 -1.000000e+001
      endloop
   endfacet
   facet normal -0.000000e+000 0.000000e+000 -1.000000e+000
      outer loop
         vertex 0.000000e+000 7.000000e+000 -1.000000e+001
         vertex 2.000000e+000 6.000000e+000 -1.000000e+001
         vertex -3.819660e-001 5.824430e+000 -1.000000e+001
      endloop
   endfacet
   facet normal 0.000000e+000 0.000000e+000 -1.000000e+000
      outer loop
         vertex 4.116117e+000 -5.883883e+000 -1.000000e+001
         vertex -3.000000e+000 -9.000000e+000 -1.000000e+001
         vertex 3.750000e+000 -5.000000e+000 -1.000000e+001
      endloop
   endfacet
   facet normal 0.000000e+000 0.000000e+000 -1.000000e+000
      outer loop
         vertex 5.883883e+000 -4.116117e+000 -1.000000e+001
         vertex 9.000000e+000 3.000000e+000 -1.000000e+001
         vertex 6.250000e+000 -5.000000e+000 -1.000000e+001
      endloop
   endfacet
   facet normal 0.000000e+000 0.000000e+000 -1.000000e+000
      outer loop
         vertex 4.411612e+001 -5.883883e+000 -1.000000e+001
         vertex 4.100000e+001 -9.000000e+000 -1.000000e+001
         vertex 4.375000e+001 -5.000000e+000 -1.000000e+001
      endloop
   endfacet
   facet normal 0.000000e+000 0.000000e+000 -1.000000e+000
      outer loop
         vertex 5.300000e+001 -9.000000e+000 -1.000000e+001
         vertex 4.625000e+001 -5.000000e+000 -1.000000e+001
         vertex 5.261803e+001 5.097887e+000 -1.000000e+001
      endloop
   endfacet
   facet normal 0.000000e+000 0.000000e+000 -1.000000e+000
      outer loop
         vertex -6.000000e+000 -7.600000e+001 -1.000000e+001
         vertex -3.000000e+000 -6.400000e+001 -1.000000e+001
         vertex -4.000000e+000 -7.200000e+001 -1.000000e+001
      endloop
   endfacet
   facet normal 0.000000e+000 0.000000e+000 -1.000000e+000
      outer loop
         vertex 5.600000e+001 -7.600000e+001 -1.000000e+001
         vertex 5.400000e+001 -7.200000e+001 -1.000000e+001
         vertex 5.300000e+001 -6.400000e+001 -1.000000e+001
      endloop
   endfacet
   facet normal 0.000000e+000 0.000000e+000 -1.000000e+000
      outer loop
         vertex -1.381966e+000 5.097887e+000 -1.000000e+001
         vertex 4.116117e+000 -4.116117e+000 -1.000000e+001
         vertex -2.618034e+000 5.097887e+000 -1.000000e+001
      endloop
   endfacet
   facet normal -0.000000e+000 0.000000e+000 -1.000000e+000
      outer loop
         vertex 2.000000e+000 6.000000e+000 -1.000000e+001
         vertex 4.800000e+001 6.000000e+000 -1.000000e+001
         vertex 9.000000e+000 3.000000e+000 -1.000000e+001
      endloop
   endfacet
   facet normal 0.000000e+000 0.000000e+000 -1.000000e+000
      outer loop
         vertex 4.800000e+001 -7.100000e+001 -1.000000e+001
         vertex 2.000000e+000 -7.100000e+001 -1.000000e+001
         vertex -3.000000e+000 -6.400000e+001 -1.000000e+001
      endloop
   endfacet
   facet normal -0.000000e+000 0.000000e+000 -1.000000e+000
      outer loop
         vertex -6.000000e+000 1.100000e+001 -1.000000e+001
         vertex 2.000000e+000 1.100000e+001 -1.000000e+001
         vertex -2.618034e+000 8.902113e+000 -1.000000e+001
      endloop
   endfacet
   facet normal -0.000000e+000 -0.000000e+000 -1.000000e+000
      outer loop
         vertex -2.618034e+000 -7.390211e+001 -1.000000e+001
         vertex -1.381966e+000 -7.390211e+001 -1.000000e+001
         vertex 2.000000e+000 -7.600000e+001 -1.000000e+001
      endloop
   endfacet
   facet normal 0.000000e+000 0.000000e+000 -1.000000e+000
      outer loop
         vertex -2.618034e+000 -7.009789e+001 -1.000000e+001
         vertex -3.618034e+000 -7.082443e+001 -1.000000e+001
         vertex -3.000000e+000 -6.400000e+001 -1.000000e+001
      endloop
   endfacet
   facet normal 0.000000e+000 -0.000000e+000 -1.000000e+000
      outer loop
         vertex 5.361803e+001 5.824430e+000 -1.000000e+001
         vertex 5.400000e+001 7.000000e+000 -1.000000e+001
         vertex 5.600000e+001 1.100000e+001 -1.000000e+001
      endloop
   endfacet
   facet normal 0.000000e+000 0.000000e+000 -1.000000e+000
      outer loop
         vertex 5.138197e+001 8.902113e+000 -1.000000e+001
         vertex 5.038197e+001 8.175570e+000 -1.000000e+001
         vertex 4.800000e+001 1.100000e+001 -1.000000e+001
      endloop
   endfacet
   facet normal 0.000000e+000 -0.000000e+000 -1.000000e+000
      outer loop
         vertex 5.000000e+000 -6.250000e+000 -1.000000e+001
         vertex 5.883883e+000 -5.883883e+000 -1.000000e+001
         vertex 9.000000e+000 -9.000000e+000 -1.000000e+001
      endloop
   endfacet
   facet normal 0.000000e+000 -0.000000e+000 -1.000000e+000
      outer loop
         vertex 4.500000e+001 -6.250000e+000 -1.000000e+001
         vertex 4.588388e+001 -5.883883e+000 -1.000000e+001
         vertex 5.300000e+001 -9.000000e+000 -1.000000e+001
      endloop
   endfacet
   facet normal 0.000000e+000 0.000000e+000 -1.000000e+000
      outer loop
         vertex 4.500000e+001 -3.750000e+000 -1.000000e+001
         vertex 4.411612e+001 -4.116117e+000 -1.000000e+001
         vertex 4.100000e+001 3.000000e+000 -1.000000e+001
      endloop
   endfacet
   facet normal -0.000000e+000 0.000000e+000 -1.000000e+000
      outer loop
         vertex -3.000000e+000 -6.400000e+001 -1.000000e+001
         vertex 5.300000e+001 -6.400000e+001 -1.000000e+001
         vertex 4.800000e+001 -7.100000e+001 -1.000000e+001
      endloop
   endfacet
   facet normal 0.000000e+000 0.000000e+000 -1.000000e+000
      outer loop
         vertex -3.000000e+000 -9.000000e+000 -1.000000e+001
         vertex -6.000000e+000 1.100000e+001 -1.000000e+001
         vertex -3.618034e+000 5.824430e+000 -1.000000e+001
      endloop
   endfacet
   facet normal 0.000000e+000 0.000000e+000 -1.000000e+000
      outer loop
         vertex 5.261803e+001 -7.390211e+001 -1.000000e+001
         vertex 5.600000e+001 -7.600000e+001 -1.000000e+001
         vertex 4.800000e+001 -7.600000e+001 -1.000000e+001
      endloop
   endfacet
   facet normal 0.000000e+000 0.000000e+000 -1.000000e+000
      outer loop
         vertex 2.000000e+000 -7.100000e+001 -1.000000e+001
         vertex -3.819660e-001 -7.082443e+001 -1.000000e+001
         vertex -1.381966e+000 -7.009789e+001 -1.000000e+001
      endloop
   endfacet
   facet normal 0.000000e+000 0.000000e+000 -1.000000e+000
      outer loop
         vertex 5.600000e+001 1.100000e+001 -1.000000e+001
         vertex 5.361803e+001 8.175570e+000 -1.000000e+001
         vertex 5.261803e+001 8.902113e+000 -1.000000e+001
      endloop
   endfacet
   facet normal -0.000000e+000 0.000000e+000 -1.000000e+000
      outer loop
         vertex -2.618034e+000 5.097887e+000 -1.000000e+001
         vertex 3.750000e+000 -5.000000e+000 -1.000000e+001
         vertex -3.000000e+000 -9.000000e+000 -1.000000e+001
      endloop
   endfacet
   facet normal 0.000000e+000 -0.000000e+000 -1.000000e+000
      outer loop
         vertex 4.100000e+001 -9.000000e+000 -1.000000e+001
         vertex 4.500000e+001 -6.250000e+000 -1.000000e+001
         vertex 5.300000e+001 -9.000000e+000 -1.000000e+001
      endloop
   endfacet
   facet normal 0.000000e+000 0.000000e+000 -1.000000e+000
      outer loop
         vertex 5.138197e+001 -7.009789e+001 -1.000000e+001
         vertex 4.800000e+001 -7.100000e+001 -1.000000e+001
         vertex 5.300000e+001 -6.400000e+001 -1.000000e+001
      endloop
   endfacet
   facet normal -0.000000e+000 0.000000e+000 -1.000000e+000
      outer loop
         vertex 2.000000e+000 6.000000e+000 -1.000000e+001
         vertex 9.000000e+000 3.000000e+000 -1.000000e+001
         vertex 5.000000e+000 -3.750000e+000 -1.000000e+001
      endloop
   endfacet
   facet normal -0.000000e+000 0.000000e+000 -1.000000e+000
      outer loop
         vertex -6.000000e+000 1.100000e+001 -1.000000e+001
         vertex -2.618034e+000 8.902113e+000 -1.000000e+001
         vertex -3.618034e+000 8.175570e+000 -1.000000e+001
      endloop
   endfacet
   facet normal 0.000000e+000 0.000000e+000 -1.000000e+000
      outer loop
         vertex 5.261803e+001 -7.390211e+001 -1.000000e+001
         vertex 4.800000e+001 -7.600000e+001 -1.000000e+001
         vertex 5.138197e+001 -7.390211e+001 -1.000000e+001
      endloop
   endfacet
   facet normal 0.000000e+000 0.000000e+000 -1.000000e+000
      outer loop
         vertex 2.000000e+000 -7.600000e+001 -1.000000e+001
         vertex -6.000000e+000 -7.600000e+001 -1.000000e+001
         vertex -2.618034e+000 -7.390211e+001 -1.000000e+001
      endloop
   endfacet
   facet normal 0.000000e+000 0.000000e+000 -1.000000e+000
      outer loop
         vertex 5.000000e+000 -3.750000e+000 -1.000000e+001
         vertex 4.116117e+000 -4.116117e+000 -1.000000e+001
         vertex 2.000000e+000 6.000000e+000 -1.000000e+001
      endloop
   endfacet
   facet normal 0.000000e+000 0.000000e+000 -1.000000e+000
      outer loop
         vertex 9.000000e+000 -9.000000e+000 -1.000000e+001
         vertex -3.000000e+000 -9.000000e+000 -1.000000e+001
         vertex 5.000000e+000 -6.250000e+000 -1.000000e+001
      endloop
   endfacet
   facet normal 0.000000e+000 0.000000e+000 -1.000000e+000
      outer loop
         vertex -1.381966e+000 -7.009789e+001 -1.000000e+001
         vertex -3.000000e+000 -6.400000e+001 -1.000000e+001
         vertex 2.000000e+000 -7.100000e+001 -1.000000e+001
      endloop
   endfacet
   facet normal 0.000000e+000 -0.000000e+000 -1.000000e+000
      outer loop
         vertex 4.588388e+001 -4.116117e+000 -1.000000e+001
         vertex 4.800000e+001 6.000000e+000 -1.000000e+001
         vertex 5.138197e+001 5.097887e+000 -1.000000e+001
      endloop
   endfacet
   facet normal 0.000000e+000 0.000000e+000 -1.000000e+000
      outer loop
         vertex 9.000000e+000 3.000000e+000 -1.000000e+001
         vertex 4.800000e+001 6.000000e+000 -1.000000e+001
         vertex 4.100000e+001 3.000000e+000 -1.000000e+001
      endloop
   endfacet
   facet normal 0.000000e+000 0.000000e+000 -1.000000e+000
      outer loop
         vertex 4.100000e+001 3.000000e+000 -1.000000e+001
         vertex 4.800000e+001 6.000000e+000 -1.000000e+001
         vertex 4.500000e+001 -3.750000e+000 -1.000000e+001
      endloop
   endfacet
   facet normal -0.000000e+000 0.000000e+000 -1.000000e+000
      outer loop
         vertex 5.138197e+001 5.097887e+000 -1.000000e+001
         vertex 5.261803e+001 5.097887e+000 -1.000000e+001
         vertex 4.588388e+001 -4.116117e+000 -1.000000e+001
      endloop
   endfacet
   facet normal 0.000000e+000 0.000000e+000 -1.000000e+000
      outer loop
         vertex 5.261803e+001 5.097887e+000 -1.000000e+001
         vertex 4.625000e+001 -5.000000e+000 -1.000000e+001
         vertex 4.588388e+001 -4.116117e+000 -1.000000e+001
      endloop
   endfacet
   facet normal 0.000000e+000 0.000000e+000 1.000000e+000
      outer loop
         vertex -1.381966e+000 8.902113e+000 0.000000e+000
         vertex 2.000000e+000 1.100000e+001 0.000000e+000
         vertex -6.000000e+000 1.100000e+001 0.000000e+000
      endloop
   endfacet
   facet normal 0.000000e+000 0.000000e+000 1.000000e+000
      outer loop
         vertex 9.000000e+000 3.000000e+000 0.000000e+000
         vertex 4.800000e+001 6.000000e+000 0.000000e+000
         vertex 2.000000e+000 6.000000e+000 0.000000e+000
      endloop
   endfacet
   facet normal 0.000000e+000 0.000000e+000 1.000000e+000
      outer loop
         vertex 5.261803e+001 8.902113e+000 0.000000e+000
         vertex 5.600000e+001 1.100000e+001 0.000000e+000
         vertex 4.800000e+001 1.100000e+001 0.000000e+000
      endloop
   endfacet
   facet normal 0.000000e+000 0.000000e+000 1.000000e+000
      outer loop
         vertex 5.138197e+001 -7.390211e+001 0.000000e+000
         vertex 4.800000e+001 -7.600000e+001 0.000000e+000
         vertex 5.600000e+001 -7.600000e+001 0.000000e+000
      endloop
   endfacet
   facet normal 0.000000e+000 -0.000000e+000 1.000000e+000
      outer loop
         vertex -3.000000e+000 -6.400000e+001 0.000000e+000
         vertex 2.000000e+000 -7.100000e+001 0.000000e+000
         vertex 4.800000e+001 -7.100000e+001 0.000000e+000
      endloop
   endfacet
   facet normal 0.000000e+000 0.000000e+000 1.000000e+000
      outer loop
         vertex -2.618034e+000 -7.390211e+001 0.000000e+000
         vertex -6.000000e+000 -7.600000e+001 0.000000e+000
         vertex 2.000000e+000 -7.600000e+001 0.000000e+000
      endloop
   endfacet
   facet normal 0.000000e+000 0.000000e+000 1.000000e+000
      outer loop
         vertex 4.800000e+001 -7.100000e+001 0.000000e+000
         vertex 5.038197e+001 -7.317557e+001 0.000000e+000
         vertex 5.000000e+001 -7.200000e+001 0.000000e+000
      endloop
   endfacet
   facet normal 0.000000e+000 0.000000e+000 1.000000e+000
      outer loop
         vertex 5.600000e+001 -7.600000e+001 0.000000e+000
         vertex 5.261803e+001 -7.390211e+001 0.000000e+000
         vertex 5.138197e+001 -7.390211e+001 0.000000e+000
      endloop
   endfacet
   facet normal 0.000000e+000 0.000000e+000 1.000000e+000
      outer loop
         vertex 5.600000e+001 -7.600000e+001 0.000000e+000
         vertex 5.400000e+001 -7.200000e+001 0.000000e+000
         vertex 5.361803e+001 -7.317557e+001 0.000000e+000
      endloop
   endfacet
   facet normal -0.000000e+000 0.000000e+000 1.000000e+000
      outer loop
         vertex 5.300000e+001 -6.400000e+001 0.000000e+000
         vertex 5.261803e+001 -7.009789e+001 0.000000e+000
         vertex 5.361803e+001 -7.082443e+001 0.000000e+000
      endloop
   endfacet
   facet normal 0.000000e+000 -0.000000e+000 1.000000e+000
      outer loop
         vertex 4.800000e+001 -7.100000e+001 0.000000e+000
         vertex 5.038197e+001 -7.082443e+001 0.000000e+000
         vertex 5.138197e+001 -7.009789e+001 0.000000e+000
      endloop
   endfacet
   facet normal 0.000000e+000 0.000000e+000 1.000000e+000
      outer loop
         vertex -6.000000e+000 -7.600000e+001 0.000000e+000
         vertex -3.618034e+000 -7.317557e+001 0.000000e+000
         vertex -4.000000e+000 -7.200000e+001 0.000000e+000
      endloop
   endfacet
   facet normal 0.000000e+000 0.000000e+000 1.000000e+000
      outer loop
         vertex 2.000000e+000 -7.600000e+001 0.000000e+000
         vertex -1.381966e+000 -7.390211e+001 0.000000e+000
         vertex -2.618034e+000 -7.390211e+001 0.000000e+000
      endloop
   endfacet
   facet normal -0.000000e+000 0.000000e+000 1.000000e+000
      outer loop
         vertex 2.000000e+000 -7.100000e+001 0.000000e+000
         vertex 0.000000e+000 -7.200000e+001 0.000000e+000
         vertex -3.819660e-001 -7.317557e+001 0.000000e+000
      endloop
   endfacet
   facet normal 0.000000e+000 0.000000e+000 1.000000e+000
      outer loop
         vertex 2.000000e+000 -7.100000e+001 0.000000e+000
         vertex -1.381966e+000 -7.009789e+001 0.000000e+000
         vertex -3.819660e-001 -7.082443e+001 0.000000e+000
      endloop
   endfacet
   facet normal 0.000000e+000 0.000000e+000 1.000000e+000
      outer loop
         vertex -3.000000e+000 -6.400000e+001 0.000000e+000
         vertex -3.618034e+000 -7.082443e+001 0.000000e+000
         vertex -2.618034e+000 -7.009789e+001 0.000000e+000
      endloop
   endfacet
   facet normal 0.000000e+000 0.000000e+000 1.000000e+000
      outer loop
         vertex 4.800000e+001 6.000000e+000 0.000000e+000
         vertex 5.038197e+001 5.824430e+000 0.000000e+000
         vertex 5.000000e+001 7.000000e+000 0.000000e+000
      endloop
   endfacet
   facet normal 0.000000e+000 0.000000e+000 1.000000e+000
      outer loop
         vertex 4.588388e+001 -4.116117e+000 0.000000e+000
         vertex 5.261803e+001 5.097887e+000 0.000000e+000
         vertex 5.138197e+001 5.097887e+000 0.000000e+000
      endloop
   endfacet
   facet normal -0.000000e+000 0.000000e+000 1.000000e+000
      outer loop
         vertex 5.600000e+001 1.100000e+001 0.000000e+000
         vertex 5.400000e+001 7.000000e+000 0.000000e+000
         vertex 5.361803e+001 5.824430e+000 0.000000e+000
      endloop
   endfacet
   facet normal -0.000000e+000 0.000000e+000 1.000000e+000
      outer loop
         vertex 5.600000e+001 1.100000e+001 0.000000e+000
         vertex 5.261803e+001 8.902113e+000 0.000000e+000
         vertex 5.361803e+001 8.175570e+000 0.000000e+000
      endloop
   endfacet
   facet normal 0.000000e+000 -0.000000e+000 1.000000e+000
      outer loop
         vertex 4.800000e+001 1.100000e+001 0.000000e+000
         vertex 5.038197e+001 8.175570e+000 0.000000e+000
         vertex 5.138197e+001 8.902113e+000 0.000000e+000
      endloop
   endfacet
   facet normal 0.000000e+000 0.000000e+000 1.000000e+000
      outer loop
         vertex -6.000000e+000 1.100000e+001 0.000000e+000
         vertex -3.618034e+000 5.824430e+000 0.000000e+000
         vertex -4.000000e+000 7.000000e+000 0.000000e+000
      endloop
   endfacet
   facet normal 0.000000e+000 0.000000e+000 1.000000e+000
      outer loop
         vertex 4.116117e+000 -4.116117e+000 0.000000e+000
         vertex -1.381966e+000 5.097887e+000 0.000000e+000
         vertex -2.618034e+000 5.097887e+000 0.000000e+000
      endloop
   endfacet
   facet normal 0.000000e+000 0.000000e+000 1.000000e+000
      outer loop
         vertex 2.000000e+000 6.000000e+000 0.000000e+000
         vertex 0.000000e+000 7.000000e+000 0.000000e+000
         vertex -3.819660e-001 5.824430e+000 0.000000e+000
      endloop
   endfacet
   facet normal -0.000000e+000 0.000000e+000 1.000000e+000
      outer loop
         vertex 2.000000e+000 1.100000e+001 0.000000e+000
         vertex -1.381966e+000 8.902113e+000 0.000000e+000
         vertex -3.819660e-001 8.175570e+000 0.000000e+000
      endloop
   endfacet
   facet normal 0.000000e+000 -0.000000e+000 1.000000e+000
      outer loop
         vertex -6.000000e+000 1.100000e+001 0.000000e+000
         vertex -3.618034e+000 8.175570e+000 0.000000e+000
         vertex -2.618034e+000 8.902113e+000 0.000000e+000
      endloop
   endfacet
   facet normal 0.000000e+000 0.000000e+000 1.000000e+000
      outer loop
         vertex -3.000000e+000 -9.000000e+000 0.000000e+000
         vertex 4.116117e+000 -5.883883e+000 0.000000e+000
         vertex 3.750000e+000 -5.000000e+000 0.000000e+000
      endloop
   endfacet
   facet normal 0.000000e+000 0.000000e+000 1.000000e+000
      outer loop
         vertex 9.000000e+000 -9.000000e+000 0.000000e+000
         vertex 5.883883e+000 -5.883883e+000 0.000000e+000
         vertex 5.000000e+000 -6.250000e+000 0.000000e+000
      endloop
   endfacet
   facet normal -0.000000e+000 0.000000e+000 1.000000e+000
      outer loop
         vertex 9.000000e+000 3.000000e+000 0.000000e+000
         vertex 5.883883e+000 -4.116117e+000 0.000000e+000
         vertex 6.250000e+000 -5.000000e+000 0.000000e+000
      endloop
   endfacet
   facet normal 0.000000e+000 -0.000000e+000 1.000000e+000
      outer loop
         vertex 2.000000e+000 6.000000e+000 0.000000e+000
         vertex 4.116117e+000 -4.116117e+000 0.000000e+000
         vertex 5.000000e+000 -3.750000e+000 0.000000e+000
      endloop
   endfacet
   facet normal 0.000000e+000 0.000000e+000 1.000000e+000
      outer loop
         vertex 4.100000e+001 -9.000000e+000 0.000000e+000
         vertex 4.411612e+001 -5.883883e+000 0.000000e+000
         vertex 4.375000e+001 -5.000000e+000 0.000000e+000
      endloop
   endfacet
   facet normal 0.000000e+000 0.000000e+000 1.000000e+000
      outer loop
         vertex 5.300000e+001 -9.000000e+000 0.000000e+000
         vertex 4.588388e+001 -5.883883e+000 0.000000e+000
         vertex 4.500000e+001 -6.250000e+000 0.000000e+000
      endloop
   endfacet
   facet normal -0.000000e+000 0.000000e+000 1.000000e+000
      outer loop
         vertex 5.261803e+001 5.097887e+000 0.000000e+000
         vertex 4.588388e+001 -4.116117e+000 0.000000e+000
         vertex 4.625000e+001 -5.000000e+000 0.000000e+000
      endloop
   endfacet
   facet normal 0.000000e+000 -0.000000e+000 1.000000e+000
      outer loop
         vertex 4.100000e+001 3.000000e+000 0.000000e+000
         vertex 4.411612e+001 -4.116117e+000 0.000000e+000
         vertex 4.500000e+001 -3.750000e+000 0.000000e+000
      endloop
   endfacet
   facet normal 0.000000e+000 -0.000000e+000 1.000000e+000
      outer loop
         vertex -6.000000e+000 -7.600000e+001 0.000000e+000
         vertex -3.000000e+000 -6.400000e+001 0.000000e+000
         vertex -3.000000e+000 -9.000000e+000 0.000000e+000
      endloop
   endfacet
   facet normal 0.000000e+000 0.000000e+000 1.000000e+000
      outer loop
         vertex 5.600000e+001 -7.600000e+001 0.000000e+000
         vertex 5.300000e+001 -9.000000e+000 0.000000e+000
         vertex 5.300000e+001 -6.400000e+001 0.000000e+000
      endloop
   endfacet
   facet normal 0.000000e+000 0.000000e+000 1.000000e+000
      outer loop
         vertex 4.375000e+001 -5.000000e+000 0.000000e+000
         vertex 4.100000e+001 3.000000e+000 0.000000e+000
         vertex 4.100000e+001 -9.000000e+000 0.000000e+000
      endloop
   endfacet
   facet normal 0.000000e+000 -0.000000e+000 1.000000e+000
      outer loop
         vertex 6.250000e+000 -5.000000e+000 0.000000e+000
         vertex 9.000000e+000 -9.000000e+000 0.000000e+000
         vertex 9.000000e+000 3.000000e+000 0.000000e+000
      endloop
   endfacet
   facet normal 0.000000e+000 0.000000e+000 1.000000e+000
      outer loop
         vertex -2.618034e+000 8.902113e+000 0.000000e+000
         vertex -1.381966e+000 8.902113e+000 0.000000e+000
         vertex -6.000000e+000 1.100000e+001 0.000000e+000
      endloop
   endfacet
   facet normal 0.000000e+000 0.000000e+000 1.000000e+000
      outer loop
         vertex 5.138197e+001 8.902113e+000 0.000000e+000
         vertex 5.261803e+001 8.902113e+000 0.000000e+000
         vertex 4.800000e+001 1.100000e+001 0.000000e+000
      endloop
   endfacet
   facet normal 0.000000e+000 0.000000e+000 1.000000e+000
      outer loop
         vertex -1.381966e+000 -7.009789e+001 0.000000e+000
         vertex 2.000000e+000 -7.100000e+001 0.000000e+000
         vertex -3.000000e+000 -6.400000e+001 0.000000e+000
      endloop
   endfacet
   facet normal -0.000000e+000 0.000000e+000 1.000000e+000
      outer loop
         vertex 5.038197e+001 -7.082443e+001 0.000000e+000
         vertex 4.800000e+001 -7.100000e+001 0.000000e+000
         vertex 5.000000e+001 -7.200000e+001 0.000000e+000
      endloop
   endfacet
   facet normal 0.000000e+000 0.000000e+000 1.000000e+000
      outer loop
         vertex 5.261803e+001 -7.390211e+001 0.000000e+000
         vertex 5.600000e+001 -7.600000e+001 0.000000e+000
         vertex 5.361803e+001 -7.317557e+001 0.000000e+000
      endloop
   endfacet
   facet normal 0.000000e+000 0.000000e+000 1.000000e+000
      outer loop
         vertex 5.300000e+001 -6.400000e+001 0.000000e+000
         vertex 4.800000e+001 -7.100000e+001 0.000000e+000
         vertex 5.138197e+001 -7.009789e+001 0.000000e+000
      endloop
   endfacet
   facet normal 0.000000e+000 0.000000e+000 1.000000e+000
      outer loop
         vertex -2.618034e+000 -7.390211e+001 0.000000e+000
         vertex -3.618034e+000 -7.317557e+001 0.000000e+000
         vertex -6.000000e+000 -7.600000e+001 0.000000e+000
      endloop
   endfacet
   facet normal 0.000000e+000 0.000000e+000 1.000000e+000
      outer loop
         vertex 0.000000e+000 -7.200000e+001 0.000000e+000
         vertex 2.000000e+000 -7.100000e+001 0.000000e+000
         vertex -3.819660e-001 -7.082443e+001 0.000000e+000
      endloop
   endfacet
   facet normal 0.000000e+000 0.000000e+000 1.000000e+000
      outer loop
         vertex 5.138197e+001 5.097887e+000 0.000000e+000
         vertex 5.038197e+001 5.824430e+000 0.000000e+000
         vertex 4.800000e+001 6.000000e+000 0.000000e+000
      endloop
   endfacet
   facet normal 0.000000e+000 -0.000000e+000 1.000000e+000
      outer loop
         vertex 5.361803e+001 8.175570e+000 0.000000e+000
         vertex 5.400000e+001 7.000000e+000 0.000000e+000
         vertex 5.600000e+001 1.100000e+001 0.000000e+000
      endloop
   endfacet
   facet normal 0.000000e+000 0.000000e+000 1.000000e+000
      outer loop
         vertex -3.000000e+000 -9.000000e+000 0.000000e+000
         vertex -3.618034e+000 5.824430e+000 0.000000e+000
         vertex -6.000000e+000 1.100000e+001 0.000000e+000
      endloop
   endfacet
   facet normal -0.000000e+000 0.000000e+000 1.000000e+000
      outer loop
         vertex 2.000000e+000 6.000000e+000 0.000000e+000
         vertex -1.381966e+000 5.097887e+000 0.000000e+000
         vertex 4.116117e+000 -4.116117e+000 0.000000e+000
      endloop
   endfacet
   facet normal -0.000000e+000 -0.000000e+000 1.000000e+000
      outer loop
         vertex -3.819660e-001 8.175570e+000 0.000000e+000
         vertex 0.000000e+000 7.000000e+000 0.000000e+000
         vertex 2.000000e+000 6.000000e+000 0.000000e+000
      endloop
   endfacet
   facet normal 0.000000e+000 0.000000e+000 1.000000e+000
      outer loop
         vertex -2.618034e+000 5.097887e+000 0.000000e+000
         vertex -3.000000e+000 -9.000000e+000 0.000000e+000
         vertex 3.750000e+000 -5.000000e+000 0.000000e+000
      endloop
   endfacet
   facet normal 0.000000e+000 0.000000e+000 1.000000e+000
      outer loop
         vertex -3.000000e+000 -9.000000e+000 0.000000e+000
         vertex 9.000000e+000 -9.000000e+000 0.000000e+000
         vertex 5.000000e+000 -6.250000e+000 0.000000e+000
      endloop
   endfacet
   facet normal 0.000000e+000 0.000000e+000 1.000000e+000
      outer loop
         vertex 9.000000e+000 3.000000e+000 0.000000e+000
         vertex 2.000000e+000 6.000000e+000 0.000000e+000
         vertex 5.000000e+000 -3.750000e+000 0.000000e+000
      endloop
   endfacet
   facet normal -0.000000e+000 0.000000e+000 1.000000e+000
      outer loop
         vertex 4.625000e+001 -5.000000e+000 0.000000e+000
         vertex 4.588388e+001 -5.883883e+000 0.000000e+000
         vertex 5.300000e+001 -9.000000e+000 0.000000e+000
      endloop
   endfacet
   facet normal 0.000000e+000 0.000000e+000 1.000000e+000
      outer loop
         vertex 4.375000e+001 -5.000000e+000 0.000000e+000
         vertex 4.411612e+001 -4.116117e+000 0.000000e+000
         vertex 4.100000e+001 3.000000e+000 0.000000e+000
      endloop
   endfacet
   facet normal 0.000000e+000 0.000000e+000 1.000000e+000
      outer loop
         vertex 5.400000e+001 -7.200000e+001 0.000000e+000
         vertex 5.600000e+001 -7.600000e+001 0.000000e+000
         vertex 5.300000e+001 -6.400000e+001 0.000000e+000
      endloop
   endfacet
   facet normal 0.000000e+000 0.000000e+000 1.000000e+000
      outer loop
         vertex -2.618034e+000 -7.009789e+001 0.000000e+000
         vertex -1.381966e+000 -7.009789e+001 0.000000e+000
         vertex -3.000000e+000 -6.400000e+001 0.000000e+000
      endloop
   endfacet
   facet normal 0.000000e+000 0.000000e+000 1.000000e+000
      outer loop
         vertex -6.000000e+000 -7.600000e+001 0.000000e+000
         vertex -3.000000e+000 -9.000000e+000 0.000000e+000
         vertex -6.000000e+000 1.100000e+001 0.000000e+000
      endloop
   endfacet
   facet normal 0.000000e+000 0.000000e+000 1.000000e+000
      outer loop
         vertex 4.116117e+000 -4.116117e+000 0.000000e+000
         vertex -2.618034e+000 5.097887e+000 0.000000e+000
         vertex 3.750000e+000 -5.000000e+000 0.000000e+000
      endloop
   endfacet
   facet normal -0.000000e+000 0.000000e+000 1.000000e+000
      outer loop
         vertex 5.261803e+001 5.097887e+000 0.000000e+000
         vertex 4.625000e+001 -5.000000e+000 0.000000e+000
         vertex 5.300000e+001 -9.000000e+000 0.000000e+000
      endloop
   endfacet
   facet normal 0.000000e+000 -0.000000e+000 1.000000e+000
      outer loop
         vertex -3.819660e-001 8.175570e+000 0.000000e+000
         vertex 2.000000e+000 6.000000e+000 0.000000e+000
         vertex 2.000000e+000 1.100000e+001 0.000000e+000
      endloop
   endfacet
   facet normal 0.000000e+000 -0.000000e+000 1.000000e+000
      outer loop
         vertex 5.300000e+001 -9.000000e+000 0.000000e+000
         vertex 5.600000e+001 -7.600000e+001 0.000000e+000
         vertex 5.600000e+001 1.100000e+001 0.000000e+000
      endloop
   endfacet
   facet normal 0.000000e+000 -0.000000e+000 1.000000e+000
      outer loop
         vertex -3.819660e-001 -7.317557e+001 0.000000e+000
         vertex 2.000000e+000 -7.600000e+001 0.000000e+000
         vertex 2.000000e+000 -7.100000e+001 0.000000e+000
      endloop
   endfacet
   facet normal -0.000000e+000 -0.000000e+000 1.000000e+000
      outer loop
         vertex 5.300000e+001 -6.400000e+001 0.000000e+000
         vertex 5.361803e+001 -7.082443e+001 0.000000e+000
         vertex 5.400000e+001 -7.200000e+001 0.000000e+000
      endloop
   endfacet
   facet normal 0.000000e+000 0.000000e+000 1.000000e+000
      outer loop
         vertex 2.000000e+000 -7.600000e+001 0.000000e+000
         vertex -3.819660e-001 -7.317557e+001 0.000000e+000
         vertex -1.381966e+000 -7.390211e+001 0.000000e+000
      endloop
   endfacet
   facet normal 0.000000e+000 0.000000e+000 1.000000e+000
      outer loop
         vertex 5.300000e+001 -9.000000e+000 0.000000e+000
         vertex 5.361803e+001 5.824430e+000 0.000000e+000
         vertex 5.261803e+001 5.097887e+000 0.000000e+000
      endloop
   endfacet
   facet normal 0.000000e+000 0.000000e+000 1.000000e+000
      outer loop
         vertex -3.000000e+000 -9.000000e+000 0.000000e+000
         vertex -2.618034e+000 5.097887e+000 0.000000e+000
         vertex -3.618034e+000 5.824430e+000 0.000000e+000
      endloop
   endfacet
   facet normal 0.000000e+000 -0.000000e+000 1.000000e+000
      outer loop
         vertex -6.000000e+000 1.100000e+001 0.000000e+000
         vertex -4.000000e+000 7.000000e+000 0.000000e+000
         vertex -3.618034e+000 8.175570e+000 0.000000e+000
      endloop
   endfacet
   facet normal 0.000000e+000 0.000000e+000 1.000000e+000
      outer loop
         vertex 9.000000e+000 -9.000000e+000 0.000000e+000
         vertex 6.250000e+000 -5.000000e+000 0.000000e+000
         vertex 5.883883e+000 -5.883883e+000 0.000000e+000
      endloop
   endfacet
   facet normal 0.000000e+000 0.000000e+000 1.000000e+000
      outer loop
         vertex 4.100000e+001 -9.000000e+000 0.000000e+000
         vertex 4.500000e+001 -6.250000e+000 0.000000e+000
         vertex 4.411612e+001 -5.883883e+000 0.000000e+000
      endloop
   endfacet
   facet normal 0.000000e+000 0.000000e+000 1.000000e+000
      outer loop
         vertex 4.800000e+001 -7.100000e+001 0.000000e+000
         vertex 5.300000e+001 -6.400000e+001 0.000000e+000
         vertex -3.000000e+000 -6.400000e+001 0.000000e+000
      endloop
   endfacet
   facet normal 0.000000e+000 0.000000e+000 1.000000e+000
      outer loop
         vertex 4.800000e+001 6.000000e+000 0.000000e+000
         vertex 9.000000e+000 3.000000e+000 0.000000e+000
         vertex 4.100000e+001 3.000000e+000 0.000000e+000
      endloop
   endfacet
   facet normal 0.000000e+000 0.000000e+000 1.000000e+000
      outer loop
         vertex 4.800000e+001 -7.600000e+001 0.000000e+000
         vertex 5.038197e+001 -7.317557e+001 0.000000e+000
         vertex 4.800000e+001 -7.100000e+001 0.000000e+000
      endloop
   endfacet
   facet normal 0.000000e+000 -0.000000e+000 1.000000e+000
      outer loop
         vertex -4.000000e+000 -7.200000e+001 0.000000e+000
         vertex -3.618034e+000 -7.082443e+001 0.000000e+000
         vertex -3.000000e+000 -6.400000e+001 0.000000e+000
      endloop
   endfacet
   facet normal 0.000000e+000 0.000000e+000 1.000000e+000
      outer loop
         vertex 5.300000e+001 -9.000000e+000 0.000000e+000
         vertex 5.600000e+001 1.100000e+001 0.000000e+000
         vertex 5.361803e+001 5.824430e+000 0.000000e+000
      endloop
   endfacet
   facet normal 0.000000e+000 0.000000e+000 1.000000e+000
      outer loop
         vertex -1.381966e+000 5.097887e+000 0.000000e+000
         vertex 2.000000e+000 6.000000e+000 0.000000e+000
         vertex -3.819660e-001 5.824430e+000 0.000000e+000
      endloop
   endfacet
   facet normal 0.000000e+000 0.000000e+000 1.000000e+000
      outer loop
         vertex 4.100000e+001 -9.000000e+000 0.000000e+000
         vertex 5.300000e+001 -9.000000e+000 0.000000e+000
         vertex 4.500000e+001 -6.250000e+000 0.000000e+000
      endloop
   endfacet
   facet normal 0.000000e+000 0.000000e+000 1.000000e+000
      outer loop
         vertex 5.261803e+001 -7.009789e+001 0.000000e+000
         vertex 5.300000e+001 -6.400000e+001 0.000000e+000
         vertex 5.138197e+001 -7.009789e+001 0.000000e+000
      endloop
   endfacet
   facet normal 0.000000e+000 0.000000e+000 1.000000e+000
      outer loop
         vertex 4.500000e+001 -3.750000e+000 0.000000e+000
         vertex 4.800000e+001 6.000000e+000 0.000000e+000
         vertex 4.100000e+001 3.000000e+000 0.000000e+000
      endloop
   endfacet
   facet normal 0.000000e+000 0.000000e+000 1.000000e+000
      outer loop
         vertex 4.588388e+001 -4.116117e+000 0.000000e+000
         vertex 4.800000e+001 6.000000e+000 0.000000e+000
         vertex 4.500000e+001 -3.750000e+000 0.000000e+000
      endloop
   endfacet
   facet normal 0.000000e+000 0.000000e+000 1.000000e+000
      outer loop
         vertex 5.038197e+001 8.175570e+000 0.000000e+000
         vertex 4.800000e+001 1.100000e+001 0.000000e+000
         vertex 4.800000e+001 6.000000e+000 0.000000e+000
      endloop
   endfacet
   facet normal 0.000000e+000 -0.000000e+000 1.000000e+000
      outer loop
         vertex 4.800000e+001 6.000000e+000 0.000000e+000
         vertex 5.000000e+001 7.000000e+000 0.000000e+000
         vertex 5.038197e+001 8.175570e+000 0.000000e+000
      endloop
   endfacet
   facet normal -0.000000e+000 0.000000e+000 1.000000e+000
      outer loop
         vertex 9.000000e+000 3.000000e+000 0.000000e+000
         vertex 5.000000e+000 -3.750000e+000 0.000000e+000
         vertex 5.883883e+000 -4.116117e+000 0.000000e+000
      endloop
   endfacet
   facet normal 0.000000e+000 0.000000e+000 1.000000e+000
      outer loop
         vertex -3.000000e+000 -6.400000e+001 0.000000e+000
         vertex -6.000000e+000 -7.600000e+001 0.000000e+000
         vertex -4.000000e+000 -7.200000e+001 0.000000e+000
      endloop
   endfacet
   facet normal 0.000000e+000 0.000000e+000 1.000000e+000
      outer loop
         vertex 5.000000e+000 -6.250000e+000 0.000000e+000
         vertex 4.116117e+000 -5.883883e+000 0.000000e+000
         vertex -3.000000e+000 -9.000000e+000 0.000000e+000
      endloop
   endfacet
   facet normal 0.000000e+000 0.000000e+000 1.000000e+000
      outer loop
         vertex 5.138197e+001 5.097887e+000 0.000000e+000
         vertex 4.800000e+001 6.000000e+000 0.000000e+000
         vertex 4.588388e+001 -4.116117e+000 0.000000e+000
      endloop
   endfacet
   facet normal 0.000000e+000 0.000000e+000 1.000000e+000
      outer loop
         vertex 4.800000e+001 -7.600000e+001 0.000000e+000
         vertex 5.138197e+001 -7.390211e+001 0.000000e+000
         vertex 5.038197e+001 -7.317557e+001 0.000000e+000
      endloop
   endfacet
   facet normal 9.510565e-001 3.090171e-001 -0.000000e+000
      outer loop
         vertex -3.618034e+000 5.824430e+000 -1.000000e+001
         vertex -4.000000e+000 7.000000e+000 -1.000000e+001
         vertex -4.000000e+000 7.000000e+000 0.000000e+000
      endloop
   endfacet
   facet normal 0.000000e+000 1.000000e+000 -0.000000e+000
      outer loop
         vertex -1.381966e+000 5.097887e+000 0.000000e+000
         vertex -1.381966e+000 5.097887e+000 -1.000000e+001
         vertex -2.618034e+000 5.097887e+000 -1.000000e+001
      endloop
   endfacet
   facet normal -9.510565e-001 3.090170e-001 0.000000e+000
      outer loop
         vertex 0.000000e+000 7.000000e+000 0.000000e+000
         vertex 0.000000e+000 7.000000e+000 -1.000000e+001
         vertex -3.819660e-001 5.824430e+000 -1.000000e+001
      endloop
   endfacet
   facet normal -5.877852e-001 -8.090170e-001 0.000000e+000
      outer loop
         vertex -1.381966e+000 8.902113e+000 0.000000e+000
         vertex -1.381966e+000 8.902113e+000 -1.000000e+001
         vertex -3.819660e-001 8.175570e+000 -1.000000e+001
      endloop
   endfacet
   facet normal 5.877852e-001 -8.090170e-001 0.000000e+000
      outer loop
         vertex -3.618034e+000 8.175570e+000 0.000000e+000
         vertex -3.618034e+000 8.175570e+000 -1.000000e+001
         vertex -2.618034e+000 8.902113e+000 -1.000000e+001
      endloop
   endfacet
   facet normal 9.510565e-001 -3.090171e-001 0.000000e+000
      outer loop
         vertex -3.618034e+000 8.175570e+000 -1.000000e+001
         vertex -4.000000e+000 7.000000e+000 0.000000e+000
         vertex -4.000000e+000 7.000000e+000 -1.000000e+001
      endloop
   endfacet
   facet normal -0.000000e+000 -1.000000e+000 -0.000000e+000
      outer loop
         vertex -1.381966e+000 8.902113e+000 -1.000000e+001
         vertex -1.381966e+000 8.902113e+000 0.000000e+000
         vertex -2.618034e+000 8.902113e+000 0.000000e+000
      endloop
   endfacet
   facet normal -9.510565e-001 -3.090170e-001 -0.000000e+000
      outer loop
         vertex 0.000000e+000 7.000000e+000 -1.000000e+001
         vertex 0.000000e+000 7.000000e+000 0.000000e+000
         vertex -3.819660e-001 8.175570e+000 0.000000e+000
      endloop
   endfacet
   facet normal -5.877852e-001 8.090170e-001 0.000000e+000
      outer loop
         vertex -1.381966e+000 5.097887e+000 -1.000000e+001
         vertex -1.381966e+000 5.097887e+000 0.000000e+000
         vertex -3.819660e-001 5.824430e+000 0.000000e+000
      endloop
   endfacet
   facet normal 5.877852e-001 8.090170e-001 0.000000e+000
      outer loop
         vertex -3.618034e+000 5.824430e+000 -1.000000e+001
         vertex -3.618034e+000 5.824430e+000 0.000000e+000
         vertex -2.618034e+000 5.097887e+000 0.000000e+000
      endloop
   endfacet
   facet normal 9.510565e-001 3.090171e-001 -0.000000e+000
      outer loop
         vertex -3.618034e+000 5.824430e+000 0.000000e+000
         vertex -3.618034e+000 5.824430e+000 -1.000000e+001
         vertex -4.000000e+000 7.000000e+000 0.000000e+000
      endloop
   endfacet
   facet normal -5.877852e-001 -8.090170e-001 0.000000e+000
      outer loop
         vertex -3.819660e-001 8.175570e+000 0.000000e+000
         vertex -1.381966e+000 8.902113e+000 0.000000e+000
         vertex -3.819660e-001 8.175570e+000 -1.000000e+001
      endloop
   endfacet
   facet normal 9.510565e-001 -3.090171e-001 0.000000e+000
      outer loop
         vertex -3.618034e+000 8.175570e+000 0.000000e+000
         vertex -4.000000e+000 7.000000e+000 0.000000e+000
         vertex -3.618034e+000 8.175570e+000 -1.000000e+001
      endloop
   endfacet
   facet normal 5.877852e-001 8.090170e-001 0.000000e+000
      outer loop
         vertex -2.618034e+000 5.097887e+000 -1.000000e+001
         vertex -3.618034e+000 5.824430e+000 -1.000000e+001
         vertex -2.618034e+000 5.097887e+000 0.000000e+000
      endloop
   endfacet
   facet normal -5.877852e-001 8.090170e-001 0.000000e+000
      outer loop
         vertex -3.819660e-001 5.824430e+000 0.000000e+000
         vertex -3.819660e-001 5.824430e+000 -1.000000e+001
         vertex -1.381966e+000 5.097887e+000 -1.000000e+001
      endloop
   endfacet
   facet normal 0.000000e+000 -1.000000e+000 0.000000e+000
      outer loop
         vertex -2.618034e+000 8.902113e+000 0.000000e+000
         vertex -2.618034e+000 8.902113e+000 -1.000000e+001
         vertex -1.381966e+000 8.902113e+000 -1.000000e+001
      endloop
   endfacet
   facet normal -9.510565e-001 3.090170e-001 0.000000e+000
      outer loop
         vertex -3.819660e-001 5.824430e+000 -1.000000e+001
         vertex -3.819660e-001 5.824430e+000 0.000000e+000
         vertex 0.000000e+000 7.000000e+000 0.000000e+000
      endloop
   endfacet
   facet normal 0.000000e+000 1.000000e+000 0.000000e+000
      outer loop
         vertex -2.618034e+000 5.097887e+000 0.000000e+000
         vertex -1.381966e+000 5.097887e+000 0.000000e+000
         vertex -2.618034e+000 5.097887e+000 -1.000000e+001
      endloop
   endfacet
   facet normal -9.510565e-001 -3.090170e-001 -0.000000e+000
      outer loop
         vertex 0.000000e+000 7.000000e+000 -1.000000e+001
         vertex -3.819660e-001 8.175570e+000 0.000000e+000
         vertex -3.819660e-001 8.175570e+000 -1.000000e+001
      endloop
   endfacet
   facet normal 5.877852e-001 -8.090170e-001 0.000000e+000
      outer loop
         vertex -2.618034e+000 8.902113e+000 -1.000000e+001
         vertex -2.618034e+000 8.902113e+000 0.000000e+000
         vertex -3.618034e+000 8.175570e+000 0.000000e+000
      endloop
   endfacet
   facet normal 9.510566e-001 3.090167e-001 -0.000000e+000
      outer loop
         vertex 5.038197e+001 5.824430e+000 -1.000000e+001
         vertex 5.000000e+001 7.000000e+000 -1.000000e+001
         vertex 5.000000e+001 7.000000e+000 0.000000e+000
      endloop
   endfacet
   facet normal 0.000000e+000 1.000000e+000 -0.000000e+000
      outer loop
         vertex 5.261803e+001 5.097887e+000 0.000000e+000
         vertex 5.261803e+001 5.097887e+000 -1.000000e+001
         vertex 5.138197e+001 5.097887e+000 -1.000000e+001
      endloop
   endfacet
   facet normal -9.510566e-001 3.090167e-001 0.000000e+000
      outer loop
         vertex 5.400000e+001 7.000000e+000 0.000000e+000
         vertex 5.400000e+001 7.000000e+000 -1.000000e+001
         vertex 5.361803e+001 5.824430e+000 -1.000000e+001
      endloop
   endfacet
   facet normal -5.877852e-001 -8.090170e-001 0.000000e+000
      outer loop
         vertex 5.261803e+001 8.902113e+000 0.000000e+000
         vertex 5.261803e+001 8.902113e+000 -1.000000e+001
         vertex 5.361803e+001 8.175570e+000 -1.000000e+001
      endloop
   endfacet
   facet normal 5.877852e-001 -8.090170e-001 0.000000e+000
      outer loop
         vertex 5.038197e+001 8.175570e+000 0.000000e+000
         vertex 5.038197e+001 8.175570e+000 -1.000000e+001
         vertex 5.138197e+001 8.902113e+000 -1.000000e+001
      endloop
   endfacet
   facet normal 9.510566e-001 -3.090167e-001 0.000000e+000
      outer loop
         vertex 5.038197e+001 8.175570e+000 -1.000000e+001
         vertex 5.000000e+001 7.000000e+000 0.000000e+000
         vertex 5.000000e+001 7.000000e+000 -1.000000e+001
      endloop
   endfacet
   facet normal -0.000000e+000 -1.000000e+000 -0.000000e+000
      outer loop
         vertex 5.261803e+001 8.902113e+000 -1.000000e+001
         vertex 5.261803e+001 8.902113e+000 0.000000e+000
         vertex 5.138197e+001 8.902113e+000 0.000000e+000
      endloop
   endfacet
   facet normal -9.510566e-001 -3.090167e-001 -0.000000e+000
      outer loop
         vertex 5.400000e+001 7.000000e+000 -1.000000e+001
         vertex 5.400000e+001 7.000000e+000 0.000000e+000
         vertex 5.361803e+001 8.175570e+000 0.000000e+000
      endloop
   endfacet
   facet normal -5.877852e-001 8.090170e-001 0.000000e+000
      outer loop
         vertex 5.261803e+001 5.097887e+000 -1.000000e+001
         vertex 5.261803e+001 5.097887e+000 0.000000e+000
         vertex 5.361803e+001 5.824430e+000 0.000000e+000
      endloop
   endfacet
   facet normal 5.877852e-001 8.090170e-001 0.000000e+000
      outer loop
         vertex 5.038197e+001 5.824430e+000 -1.000000e+001
         vertex 5.038197e+001 5.824430e+000 0.000000e+000
         vertex 5.138197e+001 5.097887e+000 0.000000e+000
      endloop
   endfacet
   facet normal 9.510566e-001 3.090167e-001 -0.000000e+000
      outer loop
         vertex 5.038197e+001 5.824430e+000 0.000000e+000
         vertex 5.038197e+001 5.824430e+000 -1.000000e+001
         vertex 5.000000e+001 7.000000e+000 0.000000e+000
      endloop
   endfacet
   facet normal -5.877852e-001 -8.090170e-001 0.000000e+000
      outer loop
         vertex 5.361803e+001 8.175570e+000 0.000000e+000
         vertex 5.261803e+001 8.902113e+000 0.000000e+000
         vertex 5.361803e+001 8.175570e+000 -1.000000e+001
      endloop
   endfacet
   facet normal 9.510566e-001 -3.090167e-001 0.000000e+000
      outer loop
         vertex 5.038197e+001 8.175570e+000 0.000000e+000
         vertex 5.000000e+001 7.000000e+000 0.000000e+000
         vertex 5.038197e+001 8.175570e+000 -1.000000e+001
      endloop
   endfacet
   facet normal 5.877852e-001 8.090170e-001 0.000000e+000
      outer loop
         vertex 5.138197e+001 5.097887e+000 -1.000000e+001
         vertex 5.038197e+001 5.824430e+000 -1.000000e+001
         vertex 5.138197e+001 5.097887e+000 0.000000e+000
      endloop
   endfacet
   facet normal -5.877852e-001 8.090170e-001 0.000000e+000
      outer loop
         vertex 5.361803e+001 5.824430e+000 0.000000e+000
         vertex 5.361803e+001 5.824430e+000 -1.000000e+001
         vertex 5.261803e+001 5.097887e+000 -1.000000e+001
      endloop
   endfacet
   facet normal 0.000000e+000 -1.000000e+000 0.000000e+000
      outer loop
         vertex 5.138197e+001 8.902113e+000 0.000000e+000
         vertex 5.138197e+001 8.902113e+000 -1.000000e+001
         vertex 5.261803e+001 8.902113e+000 -1.000000e+001
      endloop
   endfacet
   facet normal -9.510566e-001 3.090167e-001 0.000000e+000
      outer loop
         vertex 5.361803e+001 5.824430e+000 -1.000000e+001
         vertex 5.361803e+001 5.824430e+000 0.000000e+000
         vertex 5.400000e+001 7.000000e+000 0.000000e+000
      endloop
   endfacet
   facet normal 0.000000e+000 1.000000e+000 0.000000e+000
      outer loop
         vertex 5.138197e+001 5.097887e+000 0.000000e+000
         vertex 5.261803e+001 5.097887e+000 0.000000e+000
         vertex 5.138197e+001 5.097887e+000 -1.000000e+001
      endloop
   endfacet
   facet normal -9.510566e-001 -3.090167e-001 -0.000000e+000
      outer loop
         vertex 5.400000e+001 7.000000e+000 -1.000000e+001
         vertex 5.361803e+001 8.175570e+000 0.000000e+000
         vertex 5.361803e+001 8.175570e+000 -1.000000e+001
      endloop
   endfacet
   facet normal 5.877852e-001 -8.090170e-001 0.000000e+000
      outer loop
         vertex 5.138197e+001 8.902113e+000 -1.000000e+001
         vertex 5.138197e+001 8.902113e+000 0.000000e+000
         vertex 5.038197e+001 8.175570e+000 0.000000e+000
      endloop
   endfacet
   facet normal 9.510563e-001 3.090178e-001 -0.000000e+000
      outer loop
         vertex -3.618034e+000 -7.317557e+001 -1.000000e+001
         vertex -4.000000e+000 -7.200000e+001 -1.000000e+001
         vertex -4.000000e+000 -7.200000e+001 0.000000e+000
      endloop
   endfacet
   facet normal 0.000000e+000 1.000000e+000 -0.000000e+000
      outer loop
         vertex -1.381966e+000 -7.390211e+001 0.000000e+000
         vertex -1.381966e+000 -7.390211e+001 -1.000000e+001
         vertex -2.618034e+000 -7.390211e+001 -1.000000e+001
      endloop
   endfacet
   facet normal -9.510563e-001 3.090177e-001 0.000000e+000
      outer loop
         vertex 0.000000e+000 -7.200000e+001 0.000000e+000
         vertex 0.000000e+000 -7.200000e+001 -1.000000e+001
         vertex -3.819660e-001 -7.317557e+001 -1.000000e+001
      endloop
   endfacet
   facet normal -5.877878e-001 -8.090152e-001 0.000000e+000
      outer loop
         vertex -1.381966e+000 -7.009789e+001 0.000000e+000
         vertex -1.381966e+000 -7.009789e+001 -1.000000e+001
         vertex -3.819660e-001 -7.082443e+001 -1.000000e+001
      endloop
   endfacet
   facet normal 5.877877e-001 -8.090152e-001 0.000000e+000
      outer loop
         vertex -3.618034e+000 -7.082443e+001 0.000000e+000
         vertex -3.618034e+000 -7.082443e+001 -1.000000e+001
         vertex -2.618034e+000 -7.009789e+001 -1.000000e+001
      endloop
   endfacet
   facet normal 9.510563e-001 -3.090178e-001 0.000000e+000
      outer loop
         vertex -3.618034e+000 -7.082443e+001 -1.000000e+001
         vertex -4.000000e+000 -7.200000e+001 0.000000e+000
         vertex -4.000000e+000 -7.200000e+001 -1.000000e+001
      endloop
   endfacet
   facet normal -0.000000e+000 -1.000000e+000 -0.000000e+000
      outer loop
         vertex -1.381966e+000 -7.009789e+001 -1.000000e+001
         vertex -1.381966e+000 -7.009789e+001 0.000000e+000
         vertex -2.618034e+000 -7.009789e+001 0.000000e+000
      endloop
   endfacet
   facet normal -9.510563e-001 -3.090177e-001 -0.000000e+000
      outer loop
         vertex 0.000000e+000 -7.200000e+001 -1.000000e+001
         vertex 0.000000e+000 -7.200000e+001 0.000000e+000
         vertex -3.819660e-001 -7.082443e+001 0.000000e+000
      endloop
   endfacet
   facet normal -5.877878e-001 8.090152e-001 0.000000e+000
      outer loop
         vertex -1.381966e+000 -7.390211e+001 -1.000000e+001
         vertex -1.381966e+000 -7.390211e+001 0.000000e+000
         vertex -3.819660e-001 -7.317557e+001 0.000000e+000
      endloop
   endfacet
   facet normal 5.877877e-001 8.090152e-001 0.000000e+000
      outer loop
         vertex -3.618034e+000 -7.317557e+001 -1.000000e+001
         vertex -3.618034e+000 -7.317557e+001 0.000000e+000
         vertex -2.618034e+000 -7.390211e+001 0.000000e+000
      endloop
   endfacet
   facet normal 9.510563e-001 3.090178e-001 -0.000000e+000
      outer loop
         vertex -3.618034e+000 -7.317557e+001 0.000000e+000
         vertex -3.618034e+000 -7.317557e+001 -1.000000e+001
         vertex -4.000000e+000 -7.200000e+001 0.000000e+000
      endloop
   endfacet
   facet normal -5.877878e-001 -8.090152e-001 0.000000e+000
      outer loop
         vertex -3.819660e-001 -7.082443e+001 0.000000e+000
         vertex -1.381966e+000 -7.009789e+001 0.000000e+000
         vertex -3.819660e-001 -7.082443e+001 -1.000000e+001
      endloop
   endfacet
   facet normal 9.510563e-001 -3.090178e-001 0.000000e+000
      outer loop
         vertex -3.618034e+000 -7.082443e+001 0.000000e+000
         vertex -4.000000e+000 -7.200000e+001 0.000000e+000
         vertex -3.618034e+000 -7.082443e+001 -1.000000e+001
      endloop
   endfacet
   facet normal 5.877877e-001 8.090152e-001 0.000000e+000
      outer loop
         vertex -2.618034e+000 -7.390211e+001 -1.000000e+001
         vertex -3.618034e+000 -7.317557e+001 -1.000000e+001
         vertex -2.618034e+000 -7.390211e+001 0.000000e+000
      endloop
   endfacet
   facet normal -5.877878e-001 8.090152e-001 0.000000e+000
      outer loop
         vertex -3.819660e-001 -7.317557e+001 0.000000e+000
         vertex -3.819660e-001 -7.317557e+001 -1.000000e+001
         vertex -1.381966e+000 -7.390211e+001 -1.000000e+001
      endloop
   endfacet
   facet normal 0.000000e+000 -1.000000e+000 0.000000e+000
      outer loop
         vertex -2.618034e+000 -7.009789e+001 0.000000e+000
         vertex -2.618034e+000 -7.009789e+001 -1.000000e+001
         vertex -1.381966e+000 -7.009789e+001 -1.000000e+001
      endloop
   endfacet
   facet normal -9.510563e-001 3.090177e-001 0.000000e+000
      outer loop
         vertex -3.819660e-001 -7.317557e+001 -1.000000e+001
         vertex -3.819660e-001 -7.317557e+001 0.000000e+000
         vertex 0.000000e+000 -7.200000e+001 0.000000e+000
      endloop
   endfacet
   facet normal 0.000000e+000 1.000000e+000 0.000000e+000
      outer loop
         vertex -2.618034e+000 -7.390211e+001 0.000000e+000
         vertex -1.381966e+000 -7.390211e+001 0.000000e+000
         vertex -2.618034e+000 -7.390211e+001 -1.000000e+001
      endloop
   endfacet
   facet normal -9.510563e-001 -3.090177e-001 -0.000000e+000
      outer loop
         vertex 0.000000e+000 -7.200000e+001 -1.000000e+001
         vertex -3.819660e-001 -7.082443e+001 0.000000e+000
         vertex -3.819660e-001 -7.082443e+001 -1.000000e+001
      endloop
   endfacet
   facet normal 5.877877e-001 -8.090152e-001 0.000000e+000
      outer loop
         vertex -2.618034e+000 -7.009789e+001 -1.000000e+001
         vertex -2.618034e+000 -7.009789e+001 0.000000e+000
         vertex -3.618034e+000 -7.082443e+001 0.000000e+000
      endloop
   endfacet
   facet normal 9.510564e-001 3.090174e-001 -0.000000e+000
      outer loop
         vertex 5.038197e+001 -7.317557e+001 -1.000000e+001
         vertex 5.000000e+001 -7.200000e+001 -1.000000e+001
         vertex 5.000000e+001 -7.200000e+001 0.000000e+000
      endloop
   endfacet
   facet normal 0.000000e+000 1.000000e+000 -0.000000e+000
      outer loop
         vertex 5.261803e+001 -7.390211e+001 0.000000e+000
         vertex 5.261803e+001 -7.390211e+001 -1.000000e+001
         vertex 5.138197e+001 -7.390211e+001 -1.000000e+001
      endloop
   endfacet
   facet normal -9.510564e-001 3.090174e-001 0.000000e+000
      outer loop
         vertex 5.400000e+001 -7.200000e+001 0.000000e+000
         vertex 5.400000e+001 -7.200000e+001 -1.000000e+001
         vertex 5.361803e+001 -7.317557e+001 -1.000000e+001
      endloop
   endfacet
   facet normal -5.877877e-001 -8.090152e-001 0.000000e+000
      outer loop
         vertex 5.261803e+001 -7.009789e+001 0.000000e+000
         vertex 5.261803e+001 -7.009789e+001 -1.000000e+001
         vertex 5.361803e+001 -7.082443e+001 -1.000000e+001
      endloop
   endfacet
   facet normal 5.877877e-001 -8.090152e-001 0.000000e+000
      outer loop
         vertex 5.038197e+001 -7.082443e+001 0.000000e+000
         vertex 5.038197e+001 -7.082443e+001 -1.000000e+001
         vertex 5.138197e+001 -7.009789e+001 -1.000000e+001
      endloop
   endfacet
   facet normal 9.510564e-001 -3.090174e-001 0.000000e+000
      outer loop
         vertex 5.038197e+001 -7.082443e+001 -1.000000e+001
         vertex 5.000000e+001 -7.200000e+001 0.000000e+000
         vertex 5.000000e+001 -7.200000e+001 -1.000000e+001
      endloop
   endfacet
   facet normal -0.000000e+000 -1.000000e+000 -0.000000e+000
      outer loop
         vertex 5.261803e+001 -7.009789e+001 -1.000000e+001
         vertex 5.261803e+001 -7.009789e+001 0.000000e+000
         vertex 5.138197e+001 -7.009789e+001 0.000000e+000
      endloop
   endfacet
   facet normal -9.510564e-001 -3.090174e-001 -0.000000e+000
      outer loop
         vertex 5.400000e+001 -7.200000e+001 -1.000000e+001
         vertex 5.400000e+001 -7.200000e+001 0.000000e+000
         vertex 5.361803e+001 -7.082443e+001 0.000000e+000
      endloop
   endfacet
   facet normal -5.877877e-001 8.090152e-001 0.000000e+000
      outer loop
         vertex 5.261803e+001 -7.390211e+001 -1.000000e+001
         vertex 5.261803e+001 -7.390211e+001 0.000000e+000
         vertex 5.361803e+001 -7.317557e+001 0.000000e+000
      endloop
   endfacet
   facet normal 5.877877e-001 8.090152e-001 0.000000e+000
      outer loop
         vertex 5.038197e+001 -7.317557e+001 -1.000000e+001
         vertex 5.038197e+001 -7.317557e+001 0.000000e+000
         vertex 5.138197e+001 -7.390211e+001 0.000000e+000
      endloop
   endfacet
   facet normal 9.510564e-001 3.090174e-001 -0.000000e+000
      outer loop
         vertex 5.038197e+001 -7.317557e+001 0.000000e+000
         vertex 5.038197e+001 -7.317557e+001 -1.000000e+001
         vertex 5.000000e+001 -7.200000e+001 0.000000e+000
      endloop
   endfacet
   facet normal -5.877877e-001 -8.090152e-001 0.000000e+000
      outer loop
         vertex 5.361803e+001 -7.082443e+001 0.000000e+000
         vertex 5.261803e+001 -7.009789e+001 0.000000e+000
         vertex 5.361803e+001 -7.082443e+001 -1.000000e+001
      endloop
   endfacet
   facet normal 9.510564e-001 -3.090174e-001 0.000000e+000
      outer loop
         vertex 5.038197e+001 -7.082443e+001 0.000000e+000
         vertex 5.000000e+001 -7.200000e+001 0.000000e+000
         vertex 5.038197e+001 -7.082443e+001 -1.000000e+001
      endloop
   endfacet
   facet normal 5.877877e-001 8.090152e-001 0.000000e+000
      outer loop
         vertex 5.138197e+001 -7.390211e+001 -1.000000e+001
         vertex 5.038197e+001 -7.317557e+001 -1.000000e+001
         vertex 5.138197e+001 -7.390211e+001 0.000000e+000
      endloop
   endfacet
   facet normal -5.877877e-001 8.090152e-001 0.000000e+000
      outer loop
         vertex 5.361803e+001 -7.317557e+001 0.000000e+000
         vertex 5.361803e+001 -7.317557e+001 -1.000000e+001
         vertex 5.261803e+001 -7.390211e+001 -1.000000e+001
      endloop
   endfacet
   facet normal 0.000000e+000 -1.000000e+000 0.000000e+000
      outer loop
         vertex 5.138197e+001 -7.009789e+001 0.000000e+000
         vertex 5.138197e+001 -7.009789e+001 -1.000000e+001
         vertex 5.261803e+001 -7.009789e+001 -1.000000e+001
      endloop
   endfacet
   facet normal -9.510564e-001 3.090174e-001 0.000000e+000
      outer loop
         vertex 5.361803e+001 -7.317557e+001 -1.000000e+001
         vertex 5.361803e+001 -7.317557e+001 0.000000e+000
         vertex 5.400000e+001 -7.200000e+001 0.000000e+000
      endloop
   endfacet
   facet normal 0.000000e+000 1.000000e+000 0.000000e+000
      outer loop
         vertex 5.138197e+001 -7.390211e+001 0.000000e+000
         vertex 5.261803e+001 -7.390211e+001 0.000000e+000
         vertex 5.138197e+001 -7.390211e+001 -1.000000e+001
      endloop
   endfacet
   facet normal -9.510564e-001 -3.090174e-001 -0.000000e+000
      outer loop
         vertex 5.400000e+001 -7.200000e+001 -1.000000e+001
         vertex 5.361803e+001 -7.082443e+001 0.000000e+000
         vertex 5.361803e+001 -7.082443e+001 -1.000000e+001
      endloop
   endfacet
   facet normal 5.877877e-001 -8.090152e-001 0.000000e+000
      outer loop
         vertex 5.138197e+001 -7.009789e+001 -1.000000e+001
         vertex 5.138197e+001 -7.009789e+001 0.000000e+000
         vertex 5.038197e+001 -7.082443e+001 0.000000e+000
      endloop
   endfacet
   facet normal 0.000000e+000 1.000000e+000 0.000000e+000
      outer loop
         vertex 2.000000e+000 6.000000e+000 0.000000e+000
         vertex 4.800000e+001 6.000000e+000 0.000000e+000
         vertex 4.800000e+001 6.000000e+000 -1.000000e+001
      endloop
   endfacet
   facet normal 0.000000e+000 1.000000e+000 0.000000e+000
      outer loop
         vertex 2.000000e+000 6.000000e+000 -1.000000e+001
         vertex 2.000000e+000 6.000000e+000 0.000000e+000
         vertex 4.800000e+001 6.000000e+000 -1.000000e+001
      endloop
   endfacet
   facet normal -1.000000e+000 0.000000e+000 0.000000e+000
      outer loop
         vertex 4.800000e+001 1.100000e+001 -1.000000e+001
         vertex 4.800000e+001 6.000000e+000 -1.000000e+001
         vertex 4.800000e+001 6.000000e+000 0.000000e+000
      endloop
   endfacet
   facet normal -1.000000e+000 0.000000e+000 0.000000e+000
      outer loop
         vertex 4.800000e+001 1.100000e+001 0.000000e+000
         vertex 4.800000e+001 1.100000e+001 -1.000000e+001
         vertex 4.800000e+001 6.000000e+000 0.000000e+000
      endloop
   endfacet
   facet normal -0.000000e+000 1.000000e+000 0.000000e+000
      outer loop
         vertex 4.800000e+001 1.100000e+001 -1.000000e+001
         vertex 4.800000e+001 1.100000e+001 0.000000e+000
         vertex 5.600000e+001 1.100000e+001 0.000000e+000
      endloop
   endfacet
   facet normal 0.000000e+000 1.000000e+000 0.000000e+000
      outer loop
         vertex 5.600000e+001 1.100000e+001 -1.000000e+001
         vertex 4.800000e+001 1.100000e+001 -1.000000e+001
         vertex 5.600000e+001 1.100000e+001 0.000000e+000
      endloop
   endfacet
   facet normal 1.000000e+000 0.000000e+000 0.000000e+000
      outer loop
         vertex 5.600000e+001 1.100000e+001 -1.000000e+001
         vertex 5.600000e+001 1.100000e+001 0.000000e+000
         vertex 5.600000e+001 -7.600000e+001 0.000000e+000
      endloop
   endfacet
   facet normal 1.000000e+000 0.000000e+000 0.000000e+000
      outer loop
         vertex 5.600000e+001 -7.600000e+001 -1.000000e+001
         vertex 5.600000e+001 1.100000e+001 -1.000000e+001
         vertex 5.600000e+001 -7.600000e+001 0.000000e+000
      endloop
   endfacet
   facet normal -0.000000e+000 -1.000000e+000 -0.000000e+000
      outer loop
         vertex 5.600000e+001 -7.600000e+001 -1.000000e+001
         vertex 5.600000e+001 -7.600000e+001 0.000000e+000
         vertex 4.800000e+001 -7.600000e+001 0.000000e+000
      endloop
   endfacet
   facet normal 0.000000e+000 -1.000000e+000 0.000000e+000
      outer loop
         vertex 4.800000e+001 -7.600000e+001 -1.000000e+001
         vertex 5.600000e+001 -7.600000e+001 -1.000000e+001
         vertex 4.800000e+001 -7.600000e+001 0.000000e+000
      endloop
   endfacet
   facet normal -1.000000e+000 -0.000000e+000 -0.000000e+000
      outer loop
         vertex 4.800000e+001 -7.600000e+001 0.000000e+000
         vertex 4.800000e+001 -7.100000e+001 0.000000e+000
         vertex 4.800000e+001 -7.100000e+001 -1.000000e+001
      endloop
   endfacet
   facet normal -1.000000e+000 0.000000e+000 0.000000e+000
      outer loop
         vertex 4.800000e+001 -7.600000e+001 -1.000000e+001
         vertex 4.800000e+001 -7.600000e+001 0.000000e+000
         vertex 4.800000e+001 -7.100000e+001 -1.000000e+001
      endloop
   endfacet
   facet normal 0.000000e+000 -1.000000e+000 0.000000e+000
      outer loop
         vertex 2.000000e+000 -7.100000e+001 -1.000000e+001
         vertex 4.800000e+001 -7.100000e+001 -1.000000e+001
         vertex 4.800000e+001 -7.100000e+001 0.000000e+000
      endloop
   endfacet
   facet normal 0.000000e+000 -1.000000e+000 0.000000e+000
      outer loop
         vertex 2.000000e+000 -7.100000e+001 0.000000e+000
         vertex 2.000000e+000 -7.100000e+001 -1.000000e+001
         vertex 4.800000e+001 -7.100000e+001 0.000000e+000
      endloop
   endfacet
   facet normal 1.000000e+000 0.000000e+000 -0.000000e+000
      outer loop
         vertex 2.000000e+000 -7.600000e+001 -1.000000e+001
         vertex 2.000000e+000 -7.100000e+001 -1.000000e+001
         vertex 2.000000e+000 -7.100000e+001 0.000000e+000
      endloop
   endfacet
   facet normal 1.000000e+000 0.000000e+000 0.000000e+000
      outer loop
         vertex 2.000000e+000 -7.600000e+001 0.000000e+000
         vertex 2.000000e+000 -7.600000e+001 -1.000000e+001
         vertex 2.000000e+000 -7.100000e+001 0.000000e+000
      endloop
   endfacet
   facet normal -0.000000e+000 -1.000000e+000 -0.000000e+000
      outer loop
         vertex 2.000000e+000 -7.600000e+001 -1.000000e+001
         vertex 2.000000e+000 -7.600000e+001 0.000000e+000
         vertex -6.000000e+000 -7.600000e+001 0.000000e+000
      endloop
   endfacet
   facet normal 0.000000e+000 -1.000000e+000 0.000000e+000
      outer loop
         vertex -6.000000e+000 -7.600000e+001 -1.000000e+001
         vertex 2.000000e+000 -7.600000e+001 -1.000000e+001
         vertex -6.000000e+000 -7.600000e+001 0.000000e+000
      endloop
   endfacet
   facet normal -1.000000e+000 0.000000e+000 0.000000e+000
      outer loop
         vertex -6.000000e+000 -7.600000e+001 -1.000000e+001
         vertex -6.000000e+000 -7.600000e+001 0.000000e+000
         vertex -6.000000e+000 1.100000e+001 0.000000e+000
      endloop
   endfacet
   facet normal -1.000000e+000 0.000000e+000 0.000000e+000
      outer loop
         vertex -6.000000e+000 1.100000e+001 -1.000000e+001
         vertex -6.000000e+000 -7.600000e+001 -1.000000e+001
         vertex -6.000000e+000 1.100000e+001 0.000000e+000
      endloop
   endfacet
   facet normal -0.000000e+000 1.000000e+000 0.000000e+000
      outer loop
         vertex -6.000000e+000 1.100000e+001 -1.000000e+001
         vertex -6.000000e+000 1.100000e+001 0.000000e+000
         vertex 2.000000e+000 1.100000e+001 0.000000e+000
      endloop
   endfacet
   facet normal 0.000000e+000 1.000000e+000 0.000000e+000
      outer loop
         vertex 2.000000e+000 1.100000e+001 -1.000000e+001
         vertex -6.000000e+000 1.100000e+001 -1.000000e+001
         vertex 2.000000e+000 1.100000e+001 0.000000e+000
      endloop
   endfacet
   facet normal 1.000000e+000 -0.000000e+000 0.000000e+000
      outer loop
         vertex 2.000000e+000 1.100000e+001 0.000000e+000
         vertex 2.000000e+000 6.000000e+000 0.000000e+000
         vertex 2.000000e+000 6.000000e+000 -1.000000e+001
      endloop
   endfacet
   facet normal 1.000000e+000 0.000000e+000 0.000000e+000
      outer loop
         vertex 2.000000e+000 1.100000e+001 -1.000000e+001
         vertex 2.000000e+000 1.100000e+001 0.000000e+000
         vertex 2.000000e+000 6.000000e+000 -1.000000e+001
      endloop
   endfacet
   facet normal 9.238795e-001 -3.826834e-001 0.000000e+000
      outer loop
         vertex 4.116117e+000 -4.116117e+000 0.000000e+000
         vertex 3.750000e+000 -5.000000e+000 0.000000e+000
         vertex 3.750000e+000 -5.000000e+000 -1.000000e+001
      endloop
   endfacet
   facet normal -3.826834e-001 -9.238795e-001 -0.000000e+000
      outer loop
         vertex 5.883883e+000 -4.116117e+000 -1.000000e+001
         vertex 5.883883e+000 -4.116117e+000 0.000000e+000
         vertex 5.000000e+000 -3.750000e+000 0.000000e+000
      endloop
   endfacet
   facet normal -9.238795e-001 3.826834e-001 0.000000e+000
      outer loop
         vertex 5.883883e+000 -5.883883e+000 -1.000000e+001
         vertex 5.883883e+000 -5.883883e+000 0.000000e+000
         vertex 6.250000e+000 -5.000000e+000 0.000000e+000
      endloop
   endfacet
   facet normal 3.826834e-001 9.238795e-001 0.000000e+000
      outer loop
         vertex 4.116117e+000 -5.883883e+000 -1.000000e+001
         vertex 4.116117e+000 -5.883883e+000 0.000000e+000
         vertex 5.000000e+000 -6.250000e+000 0.000000e+000
      endloop
   endfacet
   facet normal 9.238795e-001 3.826834e-001 -0.000000e+000
      outer loop
         vertex 4.116117e+000 -5.883883e+000 0.000000e+000
         vertex 3.750000e+000 -5.000000e+000 -1.000000e+001
         vertex 3.750000e+000 -5.000000e+000 0.000000e+000
      endloop
   endfacet
   facet normal -3.826834e-001 9.238795e-001 0.000000e+000
      outer loop
         vertex 5.883883e+000 -5.883883e+000 0.000000e+000
         vertex 5.883883e+000 -5.883883e+000 -1.000000e+001
         vertex 5.000000e+000 -6.250000e+000 -1.000000e+001
      endloop
   endfacet
   facet normal -9.238795e-001 -3.826834e-001 0.000000e+000
      outer loop
         vertex 5.883883e+000 -4.116117e+000 0.000000e+000
         vertex 5.883883e+000 -4.116117e+000 -1.000000e+001
         vertex 6.250000e+000 -5.000000e+000 -1.000000e+001
      endloop
   endfacet
   facet normal 3.826834e-001 -9.238795e-001 0.000000e+000
      outer loop
         vertex 4.116117e+000 -4.116117e+000 0.000000e+000
         vertex 4.116117e+000 -4.116117e+000 -1.000000e+001
         vertex 5.000000e+000 -3.750000e+000 -1.000000e+001
      endloop
   endfacet
   facet normal 9.238795e-001 -3.826834e-001 0.000000e+000
      outer loop
         vertex 4.116117e+000 -4.116117e+000 -1.000000e+001
         vertex 4.116117e+000 -4.116117e+000 0.000000e+000
         vertex 3.750000e+000 -5.000000e+000 -1.000000e+001
      endloop
   endfacet
   facet normal 3.826834e-001 9.238795e-001 0.000000e+000
      outer loop
         vertex 5.000000e+000 -6.250000e+000 -1.000000e+001
         vertex 4.116117e+000 -5.883883e+000 -1.000000e+001
         vertex 5.000000e+000 -6.250000e+000 0.000000e+000
      endloop
   endfacet
   facet normal -3.826834e-001 9.238795e-001 0.000000e+000
      outer loop
         vertex 5.000000e+000 -6.250000e+000 0.000000e+000
         vertex 5.883883e+000 -5.883883e+000 0.000000e+000
         vertex 5.000000e+000 -6.250000e+000 -1.000000e+001
      endloop
   endfacet
   facet normal 3.826834e-001 -9.238795e-001 0.000000e+000
      outer loop
         vertex 5.000000e+000 -3.750000e+000 -1.000000e+001
         vertex 5.000000e+000 -3.750000e+000 0.000000e+000
         vertex 4.116117e+000 -4.116117e+000 0.000000e+000
      endloop
   endfacet
   facet normal 9.238795e-001 3.826834e-001 -0.000000e+000
      outer loop
         vertex 4.116117e+000 -5.883883e+000 0.000000e+000
         vertex 4.116117e+000 -5.883883e+000 -1.000000e+001
         vertex 3.750000e+000 -5.000000e+000 -1.000000e+001
      endloop
   endfacet
   facet normal -3.826834e-001 -9.238795e-001 0.000000e+000
      outer loop
         vertex 5.000000e+000 -3.750000e+000 0.000000e+000
         vertex 5.000000e+000 -3.750000e+000 -1.000000e+001
         vertex 5.883883e+000 -4.116117e+000 -1.000000e+001
      endloop
   endfacet
   facet normal -9.238795e-001 -3.826834e-001 0.000000e+000
      outer loop
         vertex 6.250000e+000 -5.000000e+000 0.000000e+000
         vertex 5.883883e+000 -4.116117e+000 0.000000e+000
         vertex 6.250000e+000 -5.000000e+000 -1.000000e+001
      endloop
   endfacet
   facet normal -9.238795e-001 3.826834e-001 0.000000e+000
      outer loop
         vertex 6.250000e+000 -5.000000e+000 0.000000e+000
         vertex 6.250000e+000 -5.000000e+000 -1.000000e+001
         vertex 5.883883e+000 -5.883883e+000 -1.000000e+001
      endloop
   endfacet
   facet normal 9.238799e-001 -3.826826e-001 0.000000e+000
      outer loop
         vertex 4.411612e+001 -4.116117e+000 0.000000e+000
         vertex 4.375000e+001 -5.000000e+000 0.000000e+000
         vertex 4.375000e+001 -5.000000e+000 -1.000000e+001
      endloop
   endfacet
   facet normal -3.826831e-001 -9.238797e-001 -0.000000e+000
      outer loop
         vertex 4.588388e+001 -4.116117e+000 -1.000000e+001
         vertex 4.588388e+001 -4.116117e+000 0.000000e+000
         vertex 4.500000e+001 -3.750000e+000 0.000000e+000
      endloop
   endfacet
   facet normal -9.238799e-001 3.826826e-001 0.000000e+000
      outer loop
         vertex 4.588388e+001 -5.883883e+000 -1.000000e+001
         vertex 4.588388e+001 -5.883883e+000 0.000000e+000
         vertex 4.625000e+001 -5.000000e+000 0.000000e+000
      endloop
   endfacet
   facet normal 3.826831e-001 9.238797e-001 0.000000e+000
      outer loop
         vertex 4.411612e+001 -5.883883e+000 -1.000000e+001
         vertex 4.411612e+001 -5.883883e+000 0.000000e+000
         vertex 4.500000e+001 -6.250000e+000 0.000000e+000
      endloop
   endfacet
   facet normal 9.238799e-001 3.826826e-001 -0.000000e+000
      outer loop
         vertex 4.411612e+001 -5.883883e+000 0.000000e+000
         vertex 4.375000e+001 -5.000000e+000 -1.000000e+001
         vertex 4.375000e+001 -5.000000e+000 0.000000e+000
      endloop
   endfacet
   facet normal -3.826831e-001 9.238797e-001 0.000000e+000
      outer loop
         vertex 4.588388e+001 -5.883883e+000 0.000000e+000
         vertex 4.588388e+001 -5.883883e+000 -1.000000e+001
         vertex 4.500000e+001 -6.250000e+000 -1.000000e+001
      endloop
   endfacet
   facet normal -9.238799e-001 -3.826826e-001 0.000000e+000
      outer loop
         vertex 4.588388e+001 -4.116117e+000 0.000000e+000
         vertex 4.588388e+001 -4.116117e+000 -1.000000e+001
         vertex 4.625000e+001 -5.000000e+000 -1.000000e+001
      endloop
   endfacet
   facet normal 3.826831e-001 -9.238797e-001 0.000000e+000
      outer loop
         vertex 4.411612e+001 -4.116117e+000 0.000000e+000
         vertex 4.411612e+001 -4.116117e+000 -1.000000e+001
         vertex 4.500000e+001 -3.750000e+000 -1.000000e+001
      endloop
   endfacet
   facet normal 9.238799e-001 -3.826826e-001 0.000000e+000
      outer loop
         vertex 4.411612e+001 -4.116117e+000 -1.000000e+001
         vertex 4.411612e+001 -4.116117e+000 0.000000e+000
         vertex 4.375000e+001 -5.000000e+000 -1.000000e+001
      endloop
   endfacet
   facet normal 3.826831e-001 9.238797e-001 0.000000e+000
      outer loop
         vertex 4.500000e+001 -6.250000e+000 -1.000000e+001
         vertex 4.411612e+001 -5.883883e+000 -1.000000e+001
         vertex 4.500000e+001 -6.250000e+000 0.000000e+000
      endloop
   endfacet
   facet normal -3.826831e-001 9.238797e-001 0.000000e+000
      outer loop
         vertex 4.500000e+001 -6.250000e+000 0.000000e+000
         vertex 4.588388e+001 -5.883883e+000 0.000000e+000
         vertex 4.500000e+001 -6.250000e+000 -1.000000e+001
      endloop
   endfacet
   facet normal 3.826831e-001 -9.238797e-001 0.000000e+000
      outer loop
         vertex 4.500000e+001 -3.750000e+000 -1.000000e+001
         vertex 4.500000e+001 -3.750000e+000 0.000000e+000
         vertex 4.411612e+001 -4.116117e+000 0.000000e+000
      endloop
   endfacet
   facet normal 9.238799e-001 3.826826e-001 -0.000000e+000
      outer loop
         vertex 4.411612e+001 -5.883883e+000 0.000000e+000
         vertex 4.411612e+001 -5.883883e+000 -1.000000e+001
         vertex 4.375000e+001 -5.000000e+000 -1.000000e+001
      endloop
   endfacet
   facet normal -3.826831e-001 -9.238797e-001 0.000000e+000
      outer loop
         vertex 4.500000e+001 -3.750000e+000 0.000000e+000
         vertex 4.500000e+001 -3.750000e+000 -1.000000e+001
         vertex 4.588388e+001 -4.116117e+000 -1.000000e+001
      endloop
   endfacet
   facet normal -9.238799e-001 -3.826826e-001 0.000000e+000
      outer loop
         vertex 4.625000e+001 -5.000000e+000 0.000000e+000
         vertex 4.588388e+001 -4.116117e+000 0.000000e+000
         vertex 4.625000e+001 -5.000000e+000 -1.000000e+001
      endloop
   endfacet
   facet normal -9.238799e-001 3.826826e-001 0.000000e+000
      outer loop
         vertex 4.625000e+001 -5.000000e+000 0.000000e+000
         vertex 4.625000e+001 -5.000000e+000 -1.000000e+001
         vertex 4.588388e+001 -5.883883e+000 -1.000000e+001
      endloop
   endfacet
   facet normal 0.000000e+000 -1.000000e+000 0.000000e+000
      outer loop
         vertex 9.000000e+000 -9.000000e+000 0.000000e+000
         vertex -3.000000e+000 -9.000000e+000 0.000000e+000
         vertex -3.000000e+000 -9.000000e+000 -1.000000e+001
      endloop
   endfacet
   facet normal 0.000000e+000 -1.000000e+000 0.000000e+000
      outer loop
         vertex 9.000000e+000 -9.000000e+000 0.000000e+000
         vertex -3.000000e+000 -9.000000e+000 -1.000000e+001
         vertex 9.000000e+000 -9.000000e+000 -1.000000e+001
      endloop
   endfacet
   facet normal 1.000000e+000 -0.000000e+000 0.000000e+000
      outer loop
         vertex -3.000000e+000 -9.000000e+000 0.000000e+000
         vertex -3.000000e+000 -6.400000e+001 0.000000e+000
         vertex -3.000000e+000 -6.400000e+001 -1.000000e+001
      endloop
   endfacet
   facet normal 1.000000e+000 0.000000e+000 0.000000e+000
      outer loop
         vertex -3.000000e+000 -9.000000e+000 0.000000e+000
         vertex -3.000000e+000 -6.400000e+001 -1.000000e+001
         vertex -3.000000e+000 -9.000000e+000 -1.000000e+001
      endloop
   endfacet
   facet normal 0.000000e+000 1.000000e+000 0.000000e+000
      outer loop
         vertex -3.000000e+000 -6.400000e+001 0.000000e+000
         vertex 5.300000e+001 -6.400000e+001 0.000000e+000
         vertex 5.300000e+001 -6.400000e+001 -1.000000e+001
      endloop
   endfacet
   facet normal 0.000000e+000 1.000000e+000 0.000000e+000
      outer loop
         vertex -3.000000e+000 -6.400000e+001 0.000000e+000
         vertex 5.300000e+001 -6.400000e+001 -1.000000e+001
         vertex -3.000000e+000 -6.400000e+001 -1.000000e+001
      endloop
   endfacet
   facet normal -1.000000e+000 -0.000000e+000 -0.000000e+000
      outer loop
         vertex 5.300000e+001 -6.400000e+001 0.000000e+000
         vertex 5.300000e+001 -9.000000e+000 0.000000e+000
         vertex 5.300000e+001 -9.000000e+000 -1.000000e+001
      endloop
   endfacet
   facet normal -1.000000e+000 0.000000e+000 0.000000e+000
      outer loop
         vertex 5.300000e+001 -6.400000e+001 0.000000e+000
         vertex 5.300000e+001 -9.000000e+000 -1.000000e+001
         vertex 5.300000e+001 -6.400000e+001 -1.000000e+001
      endloop
   endfacet
   facet normal 0.000000e+000 -1.000000e+000 0.000000e+000
      outer loop
         vertex 5.300000e+001 -9.000000e+000 0.000000e+000
         vertex 4.100000e+001 -9.000000e+000 0.000000e+000
         vertex 4.100000e+001 -9.000000e+000 -1.000000e+001
      endloop
   endfacet
   facet normal 0.000000e+000 -1.000000e+000 0.000000e+000
      outer loop
         vertex 5.300000e+001 -9.000000e+000 0.000000e+000
         vertex 4.100000e+001 -9.000000e+000 -1.000000e+001
         vertex 5.300000e+001 -9.000000e+000 -1.000000e+001
      endloop
   endfacet
   facet normal -1.000000e+000 -0.000000e+000 -0.000000e+000
      outer loop
         vertex 4.100000e+001 -9.000000e+000 0.000000e+000
         vertex 4.100000e+001 3.000000e+000 0.000000e+000
         vertex 4.100000e+001 3.000000e+000 -1.000000e+001
      endloop
   endfacet
   facet normal -1.000000e+000 0.000000e+000 0.000000e+000
      outer loop
         vertex 4.100000e+001 -9.000000e+000 0.000000e+000
         vertex 4.100000e+001 3.000000e+000 -1.000000e+001
         vertex 4.100000e+001 -9.000000e+000 -1.000000e+001
      endloop
   endfacet
   facet normal 0.000000e+000 -1.000000e+000 0.000000e+000
      outer loop
         vertex 4.100000e+001 3.000000e+000 0.000000e+000
         vertex 9.000000e+000 3.000000e+000 0.000000e+000
         vertex 9.000000e+000 3.000000e+000 -1.000000e+001
      endloop
   endfacet
   facet normal 0.000000e+000 -1.000000e+000 0.000000e+000
      outer loop
         vertex 4.100000e+001 3.000000e+000 0.000000e+000
         vertex 9.000000e+000 3.000000e+000 -1.000000e+001
         vertex 4.100000e+001 3.000000e+000 -1.000000e+001
      endloop
   endfacet
   facet normal 1.000000e+000 -0.000000e+000 0.000000e+000
      outer loop
         vertex 9.000000e+000 3.000000e+000 0.000000e+000
         vertex 9.000000e+000 -9.000000e+000 0.000000e+000
         vertex 9.000000e+000 -9.000000e+000 -1.000000e+001
      endloop
   endfacet
   facet normal 1.000000e+000 0.000000e+000 0.000000e+000
      outer loop
         vertex 9.000000e+000 3.000000e+000 0.000000e+000
         vertex 9.000000e+000 -9.000000e+000 -1.000000e+001
         vertex 9.000000e+000 3.000000e+000 -1.000000e+001
      endloop
   endfacet
endsolid
